<svg version="1.1" id="Layer_1" xmlns="http://www.w3.org/2000/svg" xmlns:xlink="http://www.w3.org/1999/xlink" x="0" y="0" width="1920" height="1702.9" viewBox="0 0 1920 1702.9" xml:space="preserve"><style type="text/css">.st0{clip-path:url(#SVGID_2_)}.st1{fill:#ceb191}.st2{fill:#d8be9e}.st3{fill:#e2cdaf}.st4{fill:#ead9be}.st5{fill:#f4e8d3}.st6{fill:#85d8e5}.st7{fill:#c4a483}.st8{fill:#74cee4}.st9{fill:#95dce8}.st10{fill:#daeeef}</style><defs><path id="SVGID_1_" d="M0 0h1920v1703.1H0z"/></defs><clipPath id="SVGID_2_"><use xlink:href="#SVGID_1_" overflow="visible"/></clipPath><g class="st0"><path id="XMLID_10_" transform="rotate(-180 961.262 1308.08)" class="st1" d="M-13 913h1948.5v790.1H-13z"/><path class="st2" d="M2105 1635.8H-353.4v-45h209.6c-24.8-10 17.3-53.7-3.4-77.9-36.6-43 33.5-96.2 35.5-144.2 54.3-16.8 89.4-56 107.5-95.8 19.1-42.1 23.5-86.9 40.5-129.5 3.5-8.8 11.6-19.5 24.7-18.4 8.1.7 13.6 5.8 17.6 10.7 30.6 38.3 17.9 85.3 16.4 129.2-1.6 43.8 18.9 96.2 79.2 109.1-9.4-11.7 17.1-24.3 34.7-18.7 17.6 5.6 25.6 19.5 33.2 31.9 24.9 40 67.4 77.4 126.9 91.1 59.5 13.6 135.9-4.6 156-45.9 32.1 24.4 47.8 57.1 77.5 82.9 29.7 25.8 85.6 43.5 124.2 24.3 16.8-8.4 26.7-22 42.7-31.1 29.3-16.6 72.8-14.2 107.6-4s64.8 27 98.9 38.2c8.9 2.9 19.6 5.4 28.2 2.1 8.8-3.4 11.4-11.2 13.1-18.1 6.7-27.4 13.4-54.9 20.1-82.3 7.7-31.6 23.2-69.5 67.9-77.5 41.5-7.4 82 17.9 96.6 45.8 14.6 28 12.4 58.7 20.7 87.9 8.3 29.2 32.9 60 74.8 66.3 19.6-26.5 15.6-58 22-87.5 6.5-29.4 32.4-62 75.2-63.9 8-.4 16.2.4 23.9-1.1 44.7-8.7 12.8-68.1 53.9-82.9 11.5-4.2 25.4-3.1 38.3-4.3 58.5-5.6 82.8-55 87.2-95.9 4.4-40.9 5.8-88.6 53.2-113.1 28.5 75 39.8 153.2 33.5 230.6-2.9 35.7-7.1 76.5 29 102 9.5-15.7 31.6-61.9 41.8-41.6 30 32.2 2.7 63.8 34.3 85.7 8.6-34.4 19-68.6 31.1-102.5 3.1-8.7 9.3-19.1 22.1-19.5 7-.2 13.3 2.9 18.6 6.2 65.3 40.6 61.8 119.2 132.9 154.9 8.9 4.4 19.2 8.5 23.3 15.5 5.7 9.7-3.7 21.2-16.9 26.3-8.9 3.4-9.6 9.1-13.6 15.1H2105v44.9z"/><path class="st3" d="M-119 1702.8h2308v-48h-196.7c23.3-11-16.2-57.1 3.2-82.9 34.4-45.8-31.4-102.6-33.3-153.8-51-18-84-59.7-100.9-102.2-17.9-45-22.1-92.7-38-138.1-3.3-9.4-10.9-20.8-23.2-19.6-7.6.7-12.8 6.2-16.5 11.5-28.8 40.9-16.8 91.1-15.4 137.8 1.5 46.8-17.7 102.7-74.4 116.4 8.9-12.5-16-25.9-32.6-20-16.5 5.9-24 20.8-31.2 34-23.4 42.7-63.3 82.6-119.2 97.2-55.9 14.6-127.6-5-146.5-49-30.1 26-33.6 81.8-72.8 88.5-47.8 8.2-70.4 32.7-106.7 12.2-15.8-8.9-35-9.7-50-19.4-27.5-17.7-68.3-15.2-101-4.3-32.7 10.9-60.8 28.8-92.9 40.7-8.4 3.1-18.4 5.8-26.5 2.3-8.3-3.6-10.7-11.9-12.3-19.3-6.3-29.3-12.6-58.6-18.8-87.9-7.2-33.8-21.8-74.2-63.8-82.7-38.9-7.9-77 19.1-90.7 48.9-13.7 29.8-11.6 62.7-19.4 93.8-7.8 31.2-30.9 64.1-70.2 70.7-18.4-28.3-14.6-61.9-20.7-93.4-6.1-31.4-30.4-66.2-70.6-68.2-7.5-.4-15.2.4-22.5-1.2-41.9-9.3-12-72.6-50.7-88.5-10.8-4.5-23.8-3.3-35.9-4.6-54.9-6-77.7-58.7-81.8-102.4-4.1-43.7-5.4-94.6-49.9-120.7-26.8 80.1-37.4 163.5-31.4 246.1 2.8 38.1 6.7 81.7-27.2 108.8-8.9-16.8-29.7-66.1-39.2-44.4-28.2 34.4-2.5 68.1-32.2 91.5-8.1-36.7-17.8-73.2-29.2-109.4-2.9-9.2-8.7-20.4-20.8-20.8-6.6-.3-12.5 3.1-17.4 6.6-61.3 43.4-58 127.2-124.7 165.3-8.3 4.7-18 9.1-21.9 16.6-5.4 10.4 3.5 22.4 15.9 27.9 8.3 3.7 9 10.9 12.8 15.9H-119v48.1z"/><path class="st4" d="M1973 1688.3H-246v-15h189.9c-22.4-5 15.6-20.6-3-29.5-33.1-15.8 30.2-35.8 32-53.4 49-6.2 80.7-20.8 97-35.4 17.2-15.5 21.2-32 36.6-47.7 3.2-3.2 10.5-7.2 22.3-6.8 7.3.3 12.3 2.1 15.9 3.9 27.6 14.1 16.2 31.3 14.8 47.4-1.4 16.1 17 35.4 71.5 40.1-8.5-4.3 15.4-8.9 31.3-6.9s23.1 7.2 30 11.7c22.4 14.7 60.8 28.4 114.5 33.5 53.7 5 122.7-1.7 140.8-16.9 28.9 9 43.1 21 69.9 30.5 26.8 9.5 77.2 16 112.1 8.9 15.2-3.1 24.1-8.1 38.6-11.4 26.4-6.1 65.7-5.2 97.1-1.5 31.4 3.7 58.5 9.9 89.3 14 8 1.1 17.7 2 25.5.8 8-1.2 10.3-4.1 11.8-6.6 6-10.1 12.1-20.2 18.1-30.2 7-11.6 20.9-25.5 61.3-28.5 37.4-2.7 74 6.6 87.2 16.8 13.2 10.3 11.2 21.6 18.6 32.3 7.5 10.7 29.7 22.1 67.5 24.3 17.7-9.7 14-21.3 19.9-32.1 5.9-10.8 29.2-22.8 67.8-23.5 7.2-.1 14.6.2 21.6-.4 40.3-3.2 11.5-25 48.7-30.5 10.4-1.5 22.9-1.1 34.5-1.6 52.8-2.1 74.7-20.2 78.6-35.2 3.9-15 5.2-32.6 48-41.5 25.7 27.6 35.9 56.3 30.2 84.7-2.7 13.1-6.4 28.1 26.2 37.5 8.5-5.8 3.5-71.4 26-35.8 9.9 15.7 14.1 44 42.6 52 7.8-12.6 17.1-25.2 28.1-37.7 2.8-3.2 8.4-7 20-7.2 6.4-.1 12 1.1 16.8 2.3 58.9 14.9 55.8 43.8 119.9 56.9 8 1.6 17.3 3.1 21 5.7 5.1 3.6-3.4 8.6-15.3 10.5-8 1.3-8.6 1.4-12.3 6.4H1973v15.1z"/><path class="st5" d="M-102 1702.3h2219v-11h-189.9c22.4-3-15.6-14.6 3-21 33.1-11.3-30.2-25.6-32-38.2-49-4.4-80.7-14.9-97-25.3-17.2-11.1-21.2-22.9-36.6-34.1-3.2-2.3-10.5-5.2-22.3-4.9-7.3.2-12.3 1.5-15.9 2.8-27.6 10.1-16.2 22.4-14.8 34 1.4 11.5-17 25.3-71.5 28.7 8.5-3.1-15.4-6.4-31.3-4.9s-23.1 5.1-30 8.4c-22.4 10.5-60.8 20.4-114.5 24-53.7 3.6-122.7-1.2-140.8-12.1-28.9 6.4-43.1 15-69.9 21.8-26.8 6.8-77.2 11.5-112.1 6.4-15.2-2.2-24.1-5.8-38.6-8.2-26.4-4.4-65.7-3.7-97.1-1.1-31.4 2.7-58.5 7.1-89.3 10-8 .8-17.7 1.4-25.5.6-8-.9-10.3-2.9-11.8-4.8-6-7.2-12.1-14.4-18.1-21.7-7-8.3-20.9-18.3-61.3-20.4-37.4-2-74 4.7-87.2 12.1-13.2 7.4-11.2 15.5-18.6 23.1-7.5 7.7-29.7 15.8-67.5 17.4-17.7-7-14-15.3-19.9-23-5.9-7.7-29.2-16.3-67.8-16.8-7.2-.1-14.6.1-21.6-.3-40.3-2.3-11.5-17.9-48.7-21.8-10.4-1.1-22.9-.8-34.5-1.1-52.8-1.5-74.7-14.5-78.6-25.2-3.9-10.8-5.2-23.3-48-29.8-25.7 19.7-35.9 40.3-30.2 60.7 2.7 9.4 6.4 20.1-26.2 26.8-8.5-4.1-3.5-51.1-26-25.6-9.9 11.2-14.1 31.5-42.6 37.3-7.8-9.1-17.1-18.1-28.1-27-2.8-2.3-8.4-5-20-5.1-6.4-.1-12 .8-16.8 1.6-58.5 10.7-55.4 31.4-119.5 40.8-8 1.2-17.3 2.2-21 4.1-5.1 2.6 3.4 6.1 15.3 7.4 8 .9 8.6 1.4 12.3 4.4H-102v11z"/><path id="XMLID_9_" class="st6" d="M0-.4h1920v913.1H0z"/><path class="st7" d="M-149.5 914.5h2219v-11h-189.9c22.4-3-15.6-14.6 3-21 33.1-11.3-30.2-25.6-32-38.2-49-4.4-80.7-14.9-97-25.3-17.2-11.1-21.2-22.9-36.6-34.1-3.2-2.3-10.5-5.2-22.3-4.9-7.3.2-12.3 1.5-15.9 2.8-27.6 10.1-16.2 22.4-14.8 34 1.4 11.5-17 25.3-71.5 28.7 8.5-3.1-15.4-6.4-31.3-4.9s-23.1 5.1-30 8.4c-22.4 10.5-60.8 20.4-114.5 24-53.7 3.6-122.7-1.2-140.8-12.1-28.9 6.4-43.1 15-69.9 21.8-26.8 6.8-77.2 11.5-112.1 6.4-15.2-2.2-24.1-5.8-38.6-8.2-26.4-4.4-65.7-3.7-97.1-1.1-31.4 2.7-58.5 7.1-89.3 10-8 .8-17.7 1.4-25.5.6-8-.9-10.3-2.9-11.8-4.8-6-7.2-12.1-14.4-18.1-21.7-7-8.3-20.9-18.3-61.3-20.4-37.4-2-74 4.7-87.2 12.1-13.2 7.4-11.2 15.5-18.6 23.1-7.5 7.7-29.7 15.8-67.5 17.4-17.7-7-14-15.3-19.9-23-5.9-7.7-29.2-16.3-67.8-16.8-7.2-.1-14.6.1-21.6-.3-40.3-2.3-11.5-17.9-48.7-21.8-10.4-1.1-22.9-.8-34.5-1.1-52.8-1.5-74.7-14.5-78.6-25.2-3.9-10.8-5.2-23.3-48-29.8-25.7 19.7-35.9 40.3-30.2 60.7 2.7 9.4 6.4 20.1-26.2 26.8-8.5-4.1-3.5-51.1-26-25.6-9.9 11.2-14.1 31.5-42.6 37.3-7.8-9.1-17.1-18.1-28.1-27-2.8-2.3-8.4-5-20-5.1-6.4-.1-12 .8-16.8 1.6C11 857.5 14.1 878.2-50 887.6c-8 1.2-17.3 2.2-21 4.1-5.1 2.6 3.4 6.1 15.3 7.4 8 .9 8.6 1.4 12.3 4.4h-106.4v11zM2420 914.5H-383v8.9h239.9c-28.3 2.4 19.7 11.9-3.8 17-41.7 9.2 38.1 20.8 40.4 31C-44.6 975-4.6 983.5 16 992c21.8 9 26.8 18.6 46.2 27.7 4 1.9 13.2 4.2 28.1 4 9.2-.1 15.6-1.2 20-2.3 34.9-8.2 20.4-18.3 18.6-27.6-1.8-9.4 21.5-20.6 90.3-23.3-10.8 2.5 19.5 5.2 39.6 4 20.1-1.2 29.1-4.2 37.9-6.8 28.4-8.6 76.8-16.6 144.7-19.5 67.9-2.9 155 1 177.8 9.8 36.5-5.2 54.5-12.2 88.3-17.7s97.5-9.3 141.6-5.2c19.2 1.8 30.4 4.7 48.7 6.7 33.4 3.5 83 3 122.6.9 39.6-2.2 73.9-5.8 112.8-8.2 10.1-.6 22.3-1.2 32.2-.5 10.1.7 13 2.4 14.9 3.9 7.6 5.9 15.2 11.7 22.9 17.6 8.8 6.8 26.4 14.9 77.4 16.6 47.3 1.6 93.5-3.8 110.2-9.8 16.7-6 14.1-12.6 23.5-18.8 9.4-6.2 37.5-12.8 85.2-14.2 22.3 5.7 17.7 12.4 25.1 18.7 7.4 6.3 36.9 13.3 85.7 13.7 9.1.1 18.5-.1 27.3.2 50.9 1.9 14.6 14.6 61.5 17.7 13.2.9 28.9.7 43.6.9 66.7 1.2 94.4 11.8 99.3 20.5 5 8.8 6.6 19 60.6 24.2 32.5-16 45.4-32.8 38.1-49.3-3.4-7.6-8.1-16.4 33.1-21.8 10.8 3.4 4.5 41.6 32.9 20.9 12.5-9.1 17.8-25.6 53.8-30.3 9.8 7.4 21.7 14.7 35.5 21.9 3.5 1.9 10.6 4.1 25.2 4.2 8 .1 15.2-.6 21.2-1.3 74.4-8.7 70.5-25.5 151.4-33.1 10.1-1 21.9-1.8 26.6-3.3 6.5-2.1-4.3-4.9-19.3-6-10.1-.7-10.9-1.2-15.5-3.6H2420v-9z"/><g id="fish_5_"><path class="st8" d="M1161.6 387.6c-.3-2.5-1.8-5.3-4-6.7-4.3-2.9-11.3-3-14.9 1.2-.1 0-.1-.1-.2-.1-.9-.5-1.7-1.1-2.5-1.6-1.7-1.2-3.4-2.4-5-3.7-1.6-1.2-3-2.6-4.5-3.9 2.6 2.2-.1-.1-.7-.8-.7-.8-1.5-1.6-2.2-2.4-2.4-2.8-4.5-5.7-6.5-8.8-2.8-4.8-5.3-9.7-8.4-14.3-3.8-5.5-8.7-9.8-14.8-13.1-1.4-.7-3-1-4.7-.9-.4-2.3-1.6-4.5-3.8-5.8-4.5-2.7-9.4-4.5-14.9-4.9-3.9-.2-7.7-.1-11.6.3-4.1-.6-8.4-.7-12.7-.5-5.3.3-10.5 1.1-15.7 2h-3c-3.5-.1-7.1-.2-10.5-.9-.2-.1-.5-.2-.7-.2-.1 0-.2-.1-.2-.1.2-1.2.4-2.4.7-3.6.5-2.4.7-4.8.7-7.3 0-5-2.5-10.2-6.7-13.2-8.6-6.1-19.5-2.7-28.6.8-15.2 5.8-29.5 15.2-38.3 28.4-3.8 5.6-6.8 11.6-8.4 18-28.4 10.7-55.1 25.7-78.5 44.1-3.5 2.8-7 5.6-10.3 8.5-4.8 4.1-9 8.2-10.6 14.3-3.2 11.8 9.4 20.8 19.3 25.3 8.6 3.9 18.3 5.9 27.7 7.7 9.5 1.8 19 3 28.7 3.7 39.7 2.8 80-1.9 119.2-8.1 20.3-3.2 40.5-7.3 60.2-13.1 9.4-2.8 18.7-6 27.8-9.7 8.2-3.4 16.6-7 24-11.8 3.5 1 7.2.7 10.3-1.4 3.3-2.3 4.5-5.6 4.4-9.2v-1.6c0-.8-.2-1.5-.4-2.2.2-1.4.5-2.9.3-4.4zm-142.8-66z"/><path class="st9" d="M901.1 402.4s.3 0 .6-.1c1.3-.2 2.6-.7 3.7-1.4 1.2-.5 2.1-1.4 2.9-2.4.9-1 1.4-2.2 1.7-3.4.5-1.2.6-2.5.4-3.9-.2-.9-.4-1.7-.6-2.6-.6-1.6-1.6-3-3-4-.7-.4-1.4-.7-2.1-1.1-1.6-.7-3.3-.8-5.1-.6-.2 0-.4 0-.7.1-1.3.2-2.6.3-3.7 1-1.2.5-2.2 1.2-2.9 2.3-.9 1-1.4 2.1-1.7 3.3-.5 1.2-.6 2.5-.4 3.8.2.9.4 1.7.6 2.5.6 1.6 1.6 2.9 3 4 .7.4 1.5.9 2.2 1.3 1.6.7 3.3 1 5.1.8v.4zM950.8 362.3s.3.2.8.5 1.2.8 2.1 1.5c.9.7 1.9 1.5 3 2.6s2.3 2.3 3.5 3.8c1.2 1.5 2.4 3.2 3.6 5.1 1.1 1.9 2.2 4 3.2 6.2s1.8 4.6 2.5 7.1c.1.3.2.6.3 1l.2.9.2.9.2 1c.3 1.3.4 2.6.6 3.9.3 2.6.4 5.2.3 7.7-.1 2.5-.4 5-.8 7.4-.4 2.4-1 4.6-1.6 6.7-.7 2.1-1.4 4-2.2 5.8-1.6 3.5-3.5 6.2-5 7.8-.8.8-1.5 1.4-1.9 1.7-.5.4-.7.5-.7.5s.2-.3.5-.8.7-1.2 1.2-2.2c.5-1 .9-2.2 1.4-3.5.5-1.4.9-3 1.3-4.7.8-3.5 1.5-7.7 1.8-12.1.2-2.2.2-4.5.2-6.8s-.2-4.7-.4-7c-.1-1.2-.3-2.3-.5-3.4-.2-1-.4-2.5-.6-3.4-.5-2.2-1.1-4.4-1.8-6.5-1.4-4.2-3-8-4.7-11.2-.9-1.6-1.6-3.1-2.4-4.3-.4-.6-.8-1.2-1.1-1.8-.3-.6-.7-1.1-1-1.5-.6-.9-1.1-1.6-1.4-2.1l-.8-.8zM842.1 411.6s.2-.2.7-.6c.5-.4 1.2-.9 2.3-1.4 1.1-.5 2.4-.9 4.1-1.1.8-.1 1.7-.2 2.6-.2.5 0 .9 0 1.4.1.2 0 .5 0 .7.1.3 0 .5.1.8.1 2 .3 4.1.8 6.2 1.5 1.1.3 2.1.7 3.2 1 1.1.3 2.2.7 3.3 1 1.1.3 2.2.6 3.3 1 1.1.3 2.3.6 3.5.9 2.3.6 4.7 1.1 7.1 1.6l3.6.6c1.2.2 2.4.3 3.6.5 1.2.1 2.4.2 3.5.4 1.2.1 2.3.2 3.5.3 1.1.1 2.3.1 3.4.1h3.2c1.1 0 2.1-.1 3.1-.1s1.9-.1 2.9-.2c1.9-.1 3.5-.3 5.1-.4 1.5-.2 2.8-.4 3.9-.6 1.1-.2 1.9-.3 2.5-.5.6-.1.9-.1.9-.1s-.3.2-.8.5-1.3.8-2.3 1.3c-1 .5-2.3 1.1-3.7 1.7-1.5.5-3.1 1.2-5 1.7s-4 1-6.2 1.3c-1.1.1-2.3.3-3.4.4-1.2.1-2.4.2-3.6.2h-3.7c-1.3-.1-2.5-.1-3.8-.2-1.3-.1-2.6-.2-3.9-.4-1.3-.2-2.6-.4-3.8-.6-1.3-.3-2.5-.5-3.8-.8-1.3-.3-2.5-.6-3.7-1-2.4-.7-4.9-1.6-7.1-2.5-1.1-.5-2.1-.9-3.2-1.4-1-.5-2-1-3-1.4-1.9-.9-3.7-1.7-5.4-2.3-.2-.1-.4-.1-.6-.2-.2-.1-.4-.1-.7-.2l-1.2-.3c-.8-.2-1.5-.3-2.3-.4-1.4-.2-2.7-.2-3.8-.1-1 .1-1.9.3-2.5.5-.6.1-.9.2-.9.2zM908.9 381.3h-.3c-.2 0-.4.1-.7.1-.3 0-.7.1-1 .1-.4 0-.8 0-1.2.1h-1.3c-.4 0-.9 0-1.4-.1-.9 0-1.9-.2-2.8-.3-.9-.1-1.9-.3-2.8-.6-.4-.1-.9-.3-1.3-.4-.4-.1-.9-.3-1.2-.4-.4-.2-.8-.3-1.1-.4-.4-.2-.7-.3-.9-.4-.3-.1-.5-.2-.6-.3l-.2-.1s0-.1.1-.2.2-.3.5-.5c.4-.5 1-1 1.9-1.5.4-.2.9-.5 1.4-.7.5-.2 1.1-.3 1.7-.5 1.2-.2 2.4-.2 3.7 0 1.2.2 2.4.6 3.5 1.2.5.3 1 .6 1.4.9.4.3.8.7 1.1 1.1.3.4.6.7.8 1.1.2.3.4.7.5.9.1.3.2.5.3.7-.1.1-.1.2-.1.2z"/><path class="st9" d="M956.6 362.1s.3.1 1 .3c.6.2 1.6.4 2.7.9 1.2.4 2.6.9 4.2 1.7 1.6.7 3.4 1.6 5.2 2.7 1.9 1.1 3.8 2.4 5.8 3.9s4 3.3 5.9 5.3c1.9 2 3.7 4.3 5.2 6.8s3 5.2 3.9 8.2c.2.8.4 1.5.6 2.3l.1.4v.3l.1.5c0 .2.1.3.1.5l.1.6c.2 1.7.1 3.2-.1 4.8-.4 3.1-1.3 6-2.5 8.6-1.2 2.6-2.8 4.9-4.4 6.8-.4.4-.8.9-1.2 1.4-.4.5-.8.9-1.3 1.3-.8.8-1.7 1.6-2.5 2.3-1.6 1.4-3.2 2.6-4.7 3.6-1.4 1-2.7 1.8-3.7 2.5s-1.9 1.1-2.5 1.5c-.6.3-.9.5-.9.5s.9-1.1 2.6-2.9c1.6-1.8 4.1-4.4 6.6-7.6 1.3-1.6 2.6-3.3 3.8-5.3 1.2-1.9 2.3-4 3.1-6.2.8-2.2 1.4-4.6 1.6-7 .1-.6.1-1.2.1-1.8 0-.6 0-1.2-.1-1.7v-.4c0-.1-.1-.3-.1-.5l-.1-.5v-.4.1-.1c-.1-.6-.3-1.2-.5-1.7-.7-2.3-1.9-4.7-3.1-6.9-1.3-2.2-2.7-4.3-4.3-6.3-1.5-2-3.1-3.8-4.8-5.4-1.6-1.7-3.3-3.1-4.8-4.5-.8-.7-1.5-1.3-2.3-1.9-.7-.6-1.4-1.2-2.1-1.7-1.4-1-2.5-1.9-3.5-2.6-2-1.6-3.2-2.4-3.2-2.4zM945.5 340.7s.1-.3.2-.7c.2-.5.4-1.2.8-2.1.2-.4.3-.9.6-1.4.2-.5.5-1.1.8-1.7.3-.6.6-1.2 1-1.9s.8-1.3 1.2-2c.4-.7.9-1.4 1.4-2.2.5-.7 1.1-1.4 1.6-2.2.5-.8 1.2-1.5 1.8-2.3.6-.8 1.3-1.5 2-2.3 1.4-1.5 2.9-3 4.6-4.4 1.6-1.5 3.4-2.7 5.2-4 1.9-1.2 3.7-2.4 5.6-3.4 1.9-1.1 3.8-1.9 5.7-2.7 1-.4 1.9-.7 2.8-1.1.9-.3 1.8-.7 2.7-.9.9-.2 1.8-.5 2.6-.7.9-.2 1.7-.4 2.5-.5.8-.1 1.6-.3 2.3-.4.7-.1 1.4-.2 2.1-.2.7-.1 1.3-.1 1.8-.2H999.4s-.2.1-.7.3c-.5.2-1.1.5-2 .8-.9.3-1.9.8-3.1 1.3-.6.2-1.2.5-1.9.8-.6.3-1.3.6-2 .9-.7.3-1.5.6-2.2 1-.7.4-1.5.8-2.3 1.1l-2.4 1.2c-.8.5-1.7.9-2.5 1.3-1.7 1-3.4 1.9-5.1 3-1.7 1-3.4 2.2-5.1 3.3-1.6 1.2-3.3 2.3-4.9 3.6-1.6 1.2-3.1 2.5-4.6 3.7-.7.6-1.4 1.3-2.1 1.9-.7.6-1.4 1.2-2 1.8-.6.6-1.3 1.2-1.9 1.8l-1.7 1.7c-.6.5-1.1 1.1-1.6 1.6s-.9 1-1.4 1.5c-.9.9-1.7 1.7-2.3 2.4-.6.7-1.1 1.2-1.5 1.6-.4.5-.6.7-.6.7z"/><path class="st9" d="M958.2 337.4s0-.2.1-.4c.1-.3.2-.7.4-1.2s.4-1.1.8-1.8c.3-.7.8-1.4 1.3-2.2 1-1.5 2.4-3.2 4.1-4.7.9-.8 1.8-1.5 2.8-2.2 1-.7 2-1.3 3.1-1.9 1-.5 2.1-1.1 3.2-1.5 1.1-.5 2.2-.8 3.2-1.2 2.1-.7 4.1-1.1 5.9-1.3 1.8-.3 3.2-.3 4.3-.3h1.6l-.3.3c-.2.2-.5.5-.9.8-.8.7-2 1.6-3.5 2.5-1.5 1-3.2 2-5 3-.9.5-1.8 1-2.8 1.5-1 .5-1.9 1-2.9 1.6-.9.5-1.9 1-2.8 1.5l-2.7 1.5c-1.8 1-3.4 2-4.8 2.8-1.5.9-2.7 1.6-3.5 2.2-1.1.7-1.6 1-1.6 1zM988.4 328.1s0-.1.1-.3c.1-.2.2-.4.3-.7.3-.6.8-1.3 1.5-2 1.3-1.5 3.4-3 5.7-4 2.3-1 4.8-1.3 6.8-1.2 1 .1 1.9.2 2.5.4.3.1.6.2.7.2.2.1.3.1.3.1l-.2.2c-.1.1-.3.4-.5.6-.4.5-1 1.1-1.7 1.8-1.4 1.3-3.5 2.6-5.6 3.5-1.1.4-2.2.8-3.3 1.1-1.1.3-2.2.4-3.2.4-1 .1-1.8 0-2.5-.1-.3 0-.6-.1-.7-.1-.1.1-.2.1-.2.1zM993.3 348.9s0-.1.1-.4c.1-.2.4-.6.8-.9.4-.3.9-.6 1.5-.8.6-.3 1.3-.6 2.1-.8.8-.2 1.8-.3 3-.2.6.1 1.2.3 1.8.5.3.2.6.3 1 .6l.6.6c.1.1.2.3.3.5 0 .1.1.2.1.3v.2c.3.9.2 1.5.2 1.9v.5l-.1.5c-.1.7-.3 1.3-.6 2-.3.6-.6 1.3-1.1 1.8-.1.1-.2.3-.3.4-.1.1-.1.2-.1.1 0 0 .1-.1.2-.4.1-.3.2-.8.2-1.2 0 0 0 .1 0 0s0-.2-.1-.3c-.1-.2-.1-.3-.1-.4-.1-.2-.2-.4-.3-.5-.2-.3-.4-.4-.5-.4l-.1-.1h.1c.5.2 1 .4 1.6.6.6.3 1.2.6 1.7 1 .3.2.5.4.8.8.3.3.5.6.7.9.4.7.8 1.4.9 2.2.1.4.1.8 0 1.3v.4c0 .3-.1.5-.2.7-.6 1.5-1.6 2.2-2.5 2.7-.4.2-.9.4-1.3.5-.4.1-.8.1-1.1.2h-1.7c-.4 0-.8-.1-1.1-.1h-.4s.3-.4 1.1-1c.3-.3.7-.6 1.2-1l.6-.6c.2-.2.3-.4.5-.6.3-.4.4-.9.2-1.1h-.1v-.1l-.1-.1h-.1l.1.2-.1-.1c-.1 0-.2-.1-.3-.2l-.2-.1-.2-.1c-.2-.1-.5-.2-.8-.3l-1.2-.3c-.1 0-.3-.1-.6-.2-.2-.1-.5-.2-.8-.4-.3-.2-.7-.4-1-.9-.2-.2-.4-.5-.5-.8-.1-.2-.1-.3-.2-.6 0-.1-.1-.3-.1-.4v-.1c-.1-.7.1-1.4.3-1.9.2-.5.5-.8.6-1l.4-.4.1-.1c.2-.2.3-.4.5-.6.1-.2.3-.5.4-.7 0-.1 0-.1.1-.1v-.2c0 .1 0 0 0 0l.2.5c0 .1 0 0 0 0v.1l.1.1c0 .1.1.1.1.2.1.1.2.1.2.2.1 0 0-.1-.1-.2-.1-.2-.3-.3-.5-.5-.4-.3-1-.5-1.6-.7-.6-.2-1.3-.3-1.8-.4-.6-.1-1.2-.2-1.5-.3-.4-.1-.7-.1-.9 0l-.1.1z"/><path class="st9" d="M1004.3 348.5s0-.1.1-.2.2-.4.3-.6c.2-.2.4-.5.7-.7.3-.2.6-.5 1.1-.7.8-.4 2-.7 3.2-.5.6.1 1.2.2 1.9.5.3.2.8.4 1.2.8l.7.7.2.2.1.1.1.2v.1l.1.2c.2.5.3.8.3 1.1.1.3.1.6.1.9 0 .6-.2 1.1-.3 1.5-.2.4-.4.8-.6 1.1l-.2.2-.1.1v.2c-.1.1-.2.1-.3.2-.5.5-.9.8-1.4 1-.5.2-.9.4-1.3.5-.8.2-1.6.2-2.1.2-.3 0-.5-.1-.6-.1h-.2v-.2c0-.1 0-.4.1-.6.1-.5.3-1.2.5-1.9.1-.3.2-.7.3-1 .1-.3.2-.7.2-.9 0-.1-.1-.2-.1-.3-.1.1-.2 0-.2.1 0 0 .2 0 .2-.1s.1-.1.1-.2V350.7c0 .1 0 .2.2.4l.1.1v-.1c-.1-.1.1.2.1.1l.1.1.2.2c.1.1.1 0 .1 0-.2-.2-.4-.4-.6-.5-.5-.4-1-.8-1.5-1.1-.5-.4-1.1-.7-1.6-.9l-.6-.3c-.5-.2-.6-.2-.6-.2zM1026.6 401.8s0-.1.1-.2c0-.1.1-.3.2-.5.2-.4.4-1 .8-1.6.2-.3.4-.6.6-.8.1-.1.2-.3.4-.4.1-.1.3-.3.2-.3-.1 0-.4 0-.8.5-.1.1-.1.2-.2.3-.1.1-.1.3-.2.4-.1.2-.1.5-.1.7 0 .4.1.6.2.9.1.1.2.3.3.3l.1.1.1.1c.2.1.1 0-.2-.1l-.9-.6c-.6-.4-1.1-.9-1.5-1.5-.4-.5-.7-1.1-.9-1.5-.1-.2-.2-.4-.2-.5 0-.1-.1-.2-.1-.2s.1 0 .2-.1.3-.2.5-.3c.4-.2 1-.5 1.6-.7.6-.2 1.3-.3 2.1-.3.4 0 .7 0 1.1.1.3.1.9.2 1.8.7.1.1.2.1.3.2l.3.3c.2.2.5.5.6.8.3.5.5 1.2.6 1.9 0 .4 0 .8-.1 1.2-.1.2-.1.4-.2.6-.1.1-.1.3-.2.4l-.1.1c-.6.8-1.2 1-1.6 1.2-.4.1-.5.1-.7.1h-.5c-.3 0-.7-.1-1-.1-.7-.1-1.2-.4-1.7-.6-.2-.1-.4-.2-.5-.3-.3-.3-.4-.3-.4-.3zM1010.6 398.2l.2-.2c.1-.1.2-.3.4-.5l1.3-1.3c.5-.5 1.1-.9 1.7-1.3.3-.2.5-.4.7-.5.2-.1.1-.2.2-.2-.1.1-.1.1-.1.2v.2c0 .1 0 .2.1.4 0 0 0 .1.1.1.1.4 0 .1.1.2V395c0-.1 0 0 0 0l.1.1c0 .1.1.1.1.1h.2c.1 0 .1-.1 0-.2-.1-.2-.2-.5-.5-.8l-.6-.9c-.2-.3-.3-.6-.5-.8-.1-.2-.1-.5-.2-.6v-.2h.2c.1 0 .4-.1.6-.2.5-.1 1-.4 1.8-.5.4 0 .9 0 1.5.1.3.1.6.2 1 .5.2.1.4.2.5.4l.3.3c.1.1.2.3.3.4l.2.4.1.1v.1c0 .1-.1-.2.1.2v.1c0 .1.1.3.1.4.1.6.1 1.1.1 1.7-.1.5-.2 1-.5 1.4-.2.5-.5.8-.9 1.2-.6.6-1.3 1.1-2 1.3-.6.2-1.2.4-1.7.4-1 .1-1.9-.1-2.7-.3-.8-.3-1.4-.6-1.8-1-.2-.1-.4-.3-.5-.4v-.1zM916 410.5H916.9c.6 0 1.4.1 2.2.3.9.3 1.8.7 2.6 1.3.9.6 1.7 1.4 2.4 2.3.3.5.6.9.9 1.5.3.5.5 1.2.7 1.8.2.7.2 1.4.1 2.1V420.1c0 .1 0 .1-.1.2 0 .2-.1.4-.1.6-.1.3-.3.6-.4.9-.3.5-.7.9-1.1 1.2-.4.3-.8.4-1.1.4-.3.1-.6 0-.7 0-.2 0-.2-.1-.2-.1s0-.1.1-.2.1-.4.1-.6c0-.5-.1-1.1-.4-1.5-.1-.1-.1-.2-.2-.3 0-.1-.1-.1-.1-.1s0-.1-.1-.1v-.1.1c-.2-.2-.4-.4-.6-.5l-.7-.7c-.2-.3-.5-.6-.8-1-.5-.7-1-1.5-1.4-2.3-.4-.8-.8-1.6-1-2.3-.3-.8-.5-1.5-.6-2-.3-.8-.4-1.2-.4-1.2z"/><ellipse transform="rotate(-6.383 900.106 392.756)" class="st8" cx="899.8" cy="392.5" rx="6.5" ry="6.5"/></g><g id="bubbles_1_"><circle class="st10" cx="1433.2" cy="362.5" r="52.8"/><circle class="st10" cx="508.2" cy="178.5" r="52.8"/><circle class="st10" cx="181.8" cy="132.8" r="22.5"/><circle class="st10" cx="1334.8" cy="59.8" r="22.5"/><circle class="st10" cx="227.3" cy="194.3" r="45.7"/><circle class="st10" cx="1353.7" cy="29" r="19"/><circle class="st10" cx="193.8" cy="294.8" r="18.5"/><circle class="st10" cx="1349.9" cy="114.7" r="14.6"/><circle class="st10" cx="1462.7" cy="469.9" r="26.4"/><circle class="st10" cx="1571.7" cy="193.1" r="26.4"/></g><g id="octopus_1_"><path class="st9" d="M109.2 370c-1.2 1.6-2.4 3.1-3.7 4.7-1.2 1.5-2 2.8-2 4.8 0 1.7.7 3.6 2 4.8 1.3 1.2 3 2.1 4.8 2 1.7-.1 3.7-.6 4.8-2 1.2-1.6 2.4-3.1 3.7-4.7 1.2-1.5 2-2.8 2-4.8 0-1.7-.7-3.6-2-4.8-1.3-1.2-3-2.1-4.8-2-1.7.1-3.8.7-4.8 2zM92.1 388.4c-2.2 4-4 6.3-7.5 9.4-2.7 2.4-2.5 7 0 9.5 2.7 2.7 6.8 2.5 9.5 0 3.8-3.5 7.1-7.6 9.6-12.2 1.7-3.1.9-7.5-2.4-9.2-3.2-1.6-7.4-.9-9.2 2.5zM70.6 410.1c-1.2 1.4-2.5 2.7-3.9 3.9-.3.3-.6.5-.9.8.5-.4.3-.3-.1.1-.8.6-1.7 1.1-2.5 1.7-3 1.8-4.4 6.1-2.4 9.2 1.9 3 6 4.4 9.2 2.4 3.8-2.3 7.3-5.2 10.1-8.5 2.3-2.7 2.8-6.9 0-9.5-2.5-2.4-7-3-9.5-.1zM48.3 431.9c-2.6 2.3-5.2 4.6-7.9 6.9-2.7 2.3-2.6 7.2 0 9.5 2.8 2.6 6.7 2.5 9.5 0 2.6-2.3 5.2-4.6 7.9-6.9 2.7-2.3 2.6-7.2 0-9.5-2.9-2.6-6.7-2.5-9.5 0zM21.8 450.9c-.6.6-1.2 1.1-1.8 1.6.5-.4.9-.7 1.4-1.1-.8.6-1.6 1.2-2.5 1.6-3.1 1.7-4.3 6.2-2.4 9.2 2 3.2 5.9 4.2 9.2 2.4 2.1-1.1 4.1-2.6 5.7-4.3 2.5-2.5 2.7-7 0-9.5-2.7-2.3-6.9-2.6-9.6.1zM5 470.5L-.7 475c-1.3 1-2 3.2-2 4.8 0 1.7.7 3.6 2 4.8 1.3 1.2 3 2.1 4.8 2 1.9-.1 3.3-.8 4.8-2l5.7-4.5c1.3-1 2-3.2 2-4.8 0-1.7-.7-3.6-2-4.8-1.3-1.2-3-2.1-4.8-2-1.9.1-3.3.8-4.8 2zM124.5 355.1v-.3c0-.6-.1-1.4-.3-2-.1-.5-.3-.8-.5-1.3s-.3-.9-.6-1.3c-.4-.6-.8-1.2-1.4-1.7-1.1-1-2.3-1.7-3.7-2.2-.7-.2-1.5-.3-2.2-.3-.8 0-1.6.1-2.3.3-.9.2-1.6.6-2.3 1.2-.7.5-1.3 1.1-1.7 1.9-.5.8-.8 1.6-.8 2.5-.2.9-.2 1.8.1 2.7.5 1.6 1.5 3.2 3.1 4 .5.2 1.1.5 1.6.7 1.2.3 2.4.3 3.6 0h.1c-.6.1-1.2.2-1.8.2h.4c-.6-.1-1.2-.2-1.8-.2.2 0 .3.1.5.1-.5-.2-1.1-.5-1.6-.7.2.1.3.2.5.3-.5-.4-.9-.7-1.4-1.1.2.1.3.3.5.5-.4-.5-.7-.9-1.1-1.4.1.1.2.3.3.5-.2-.5-.5-1.1-.7-1.6.1.2.1.3.1.5-.1-.6-.2-1.2-.2-1.8v.4c0 .9.2 1.8.6 2.6.3.8.7 1.6 1.4 2.2 1.2 1.2 3.1 2 4.8 2 1.7-.1 3.6-.7 4.8-2 .4-.5.7-.9 1.1-1.4.6-1 .9-2.1.9-3.3zM170.2 782.8c-.4.8-.8 1.5-1.2 2.3-.2.4-.5.8-.8 1.2-.7 1 .4-.3-.2.2-.6.6-1.1 1.3-1.8 1.9-.3.3-.6.5-.9.8-1.4 1.2 1.1-.7-.5.3-2.9 2-4.5 6-2.4 9.2 1.9 2.9 6.1 4.6 9.2 2.4 4.2-2.9 7.8-6.7 10.1-11.4 1.5-3.2 1-7.4-2.4-9.2-2.9-1.7-7.5-1.1-9.1 2.3zM154 807c.3-.6-.7 1.5-.8 1.7-.4.8-.8 1.5-1.2 2.3-.9 1.6-1.9 3.1-3 4.6-2 2.9-.6 7.6 2.4 9.2 3.5 1.8 7 .7 9.2-2.4 2.6-3.7 4.6-7.6 6.4-11.8 1.4-3.3-1.5-7.6-4.7-8.3-3.9-.9-6.8 1.2-8.3 4.7zM195.7 785.5c.1 4.1.7 8.1 1.5 12.1.7 3.5 5 5.8 8.3 4.7 3.7-1.2 5.5-4.6 4.7-8.3-.6-3-.9-5.2-1-8.5-.1-3.5-3-6.9-6.7-6.7-3.6.2-6.9 3-6.8 6.7zM204.2 820.2l1.5 1.5c.2.2.4.5.6.7.1.1.2.2.3.4.3.4.2.2-.3-.5.2.5.8 1.1 1 1.5.4.7.8 1.3 1.1 2 1.6 3.1 6.3 4.3 9.2 2.4 3.2-2.1 4.1-5.9 2.4-9.2-1.6-3.1-3.8-6-6.3-8.3-2.6-2.4-7-2.7-9.5 0-2.4 2.5-2.8 6.9 0 9.5zM229 845.5c.2.2.3.4.5.6.6.7 1.3 1.1 2.2 1.4.8.4 1.7.6 2.6.6 1.7 0 3.6-.7 4.8-2 1.2-1.3 2.1-3 2-4.8-.1-.6-.2-1.2-.2-1.8-.3-1.1-.9-2.1-1.7-3-.2-.2-.3-.4-.5-.6-.6-.7-1.3-1.1-2.2-1.4-.8-.4-1.7-.6-2.6-.6-1.7 0-3.6.7-4.8 2-1.2 1.3-2.1 3-2 4.8.1.6.2 1.2.2 1.8.3 1.1.9 2.1 1.7 3zM352.9 840.9c.4-.2 1.2-.4 1.5-.7-.3.1-.6.2-.8.4.3-.1.5-.2.8-.3.9-.3 1.8-.6 2.8-.8 3.4-.8 5.8-5 4.7-8.3-1.2-3.6-4.6-5.5-8.3-4.7-2.6.6-5.1 1.6-7.4 2.8-3.1 1.6-4.3 6.3-2.4 9.2 2 3.2 5.8 4.2 9.1 2.4zM381.2 828.7c1.2-.9 2.5-1.6 3.8-2.3l-.2.1c.4-.1.7-.3 1.1-.4.8-.2 1.5-.4 2.3-.6 3.5-.7 5.8-5 4.7-8.3-1.2-3.7-4.6-5.5-8.3-4.7-3.6.7-7.2 2.3-10.2 4.5-2.8 2.1-4.5 5.9-2.4 9.2 1.8 2.9 6.2 4.7 9.2 2.5zM410.2 812.8c3.3-2.1 6.5-4.2 9.8-6.3 3-1.9 4.4-6.1 2.4-9.2-1.9-3-6-4.4-9.2-2.4-3.3 2.1-6.5 4.2-9.8 6.3-3 1.9-4.4 6.1-2.4 9.2 1.9 3 6.1 4.4 9.2 2.4zM445.7 791.9c.5-.6 1-1.1 1.6-1.7.3-.3.6-.5.9-.8-.7.6-.2.2.3-.2.6-.4 1.3-.8 2-1.2.3-.2.7-.3 1-.5.9-.5-1.4.5.3-.1 3.3-1.2 5.9-4.6 4.7-8.3-1.1-3.2-4.7-6-8.3-4.7-4.6 1.7-8.7 4.2-11.9 7.9-2.3 2.6-2.8 7 0 9.5 2.4 2.4 6.9 2.9 9.4.1zM480.1 773l4.8-.9c1.6-.3 3.2-1.8 4-3.1.8-1.4 1.2-3.6.7-5.2s-1.5-3.2-3.1-4c-1.7-.9-3.3-1-5.2-.7l-4.8.9c-1.6.3-3.2 1.8-4 3.1-.8 1.4-1.2 3.6-.7 5.2s1.5 3.2 3.1 4c1.7.9 3.3 1.1 5.2.7zM510.8 770.8c.6-.1 1.1 0 1.7 0-.6-.1-1.2-.2-1.8-.2.7.1 1.3.3 1.9.5-.5-.2-1.1-.5-1.6-.7.2.1.3.2.5.2 1.6.8 3.4 1.2 5.2.7 1.6-.4 3.3-1.6 4-3.1.8-1.6 1.2-3.5.7-5.2-.5-1.6-1.5-3.2-3.1-4-2.3-1.2-4.9-1.9-7.4-1.7-1.8.2-3.4.6-4.8 2-1.2 1.2-2 3.1-2 4.8.1 1.7.7 3.6 2 4.8 1.2 1.1 3 2.1 4.7 1.9zM522.9 782.1c1.6 2.8 3.2 5.6 4.7 8.4 1.7 3.1 6.2 4.4 9.2 2.4 3.1-2 4.3-5.9 2.4-9.2-1.6-2.8-3.2-5.6-4.7-8.4-1.7-3.1-6.2-4.4-9.2-2.4-3 1.9-4.2 5.9-2.4 9.2zM549.8 814.8c1 .6 1.9 1.2 2.9 1.8 1.5.9 3.5 1.1 5.2.7 1.6-.4 3.3-1.6 4-3.1.8-1.6 1.2-3.5.7-5.2-.5-1.7-1.6-3.1-3.1-4-1-.6-1.9-1.2-2.9-1.8-1.5-.9-3.5-1.1-5.2-.7-1.6.4-3.3 1.6-4 3.1-.8 1.6-1.2 3.5-.7 5.2.6 1.7 1.6 3.1 3.1 4zM592.9 837.9c2.4.9 4.8 1.3 7.3 1.6 1.6.2 3.7-.9 4.8-2 1.2-1.2 2-3.1 2-4.8-.1-1.7-.7-3.6-2-4.8-1.4-1.3-2.9-1.8-4.8-2h-.4c.6.1 1.2.2 1.8.2-1.8-.2-3.5-.7-5.1-1.4-1.5-.6-3.8-.1-5.2.7-1.4.8-2.7 2.4-3.1 4-.4 1.7-.3 3.7.7 5.2.9 1.8 2.2 2.6 4 3.3zM632.4 846.2c2.4.2 4.7.4 7.1.7 3.5.3 6.9-3.3 6.7-6.7-.2-3.9-3-6.4-6.7-6.7-2.4-.2-4.7-.4-7.1-.7-3.5-.3-6.9 3.3-6.7 6.7.1 3.8 2.9 6.3 6.7 6.7zM673.7 848c.7.1 1.4.1 2 .2.9 0 1.8-.2 2.6-.6.8-.3 1.6-.7 2.2-1.4 1.2-1.2 2-3.1 2-4.8-.1-1.7-.7-3.6-2-4.8-.5-.4-.9-.7-1.4-1.1-1.1-.6-2.2-.9-3.4-.9-.7-.1-1.4-.1-2-.2-.9 0-1.8.2-2.6.6-.8.3-1.6.7-2.2 1.4-1.2 1.2-2 3.1-2 4.8.1 1.7.7 3.6 2 4.8.5.4.9.7 1.4 1.1 1 .5 2.2.9 3.4.9zM716.1 846.4c1.6-.4 3.1-.7 4.7-1.1 3.4-.8 5.8-4.9 4.7-8.3-1.2-3.6-4.6-5.5-8.3-4.7-1.6.4-3.1.7-4.7 1.1-3.4.8-5.8 4.9-4.7 8.3 1.1 3.6 4.6 5.5 8.3 4.7zM757.7 836.5l1-1c-.5.4-.9.7-1.4 1.1.6-.4 1.2-.8 1.8-1.1-.5.2-1.1.5-1.6.7l.9-.3c1.7-.5 3.1-1.6 4-3.1.8-1.4 1.2-3.6.7-5.2s-1.5-3.2-3.1-4c-1.6-.8-3.4-1.2-5.2-.7-2.5.8-4.9 2.1-6.7 4.1-1.2 1.3-2 3-2 4.8 0 1.7.7 3.6 2 4.8 1.3 1.2 3 2.1 4.8 2 1.8-.2 3.6-.8 4.8-2.1zM790.8 828.1c8.7 0 8.7-13.5 0-13.5-8.7.1-8.7 13.5 0 13.5zM821.9 807c8.7 0 8.7-13.5 0-13.5-8.6 0-8.7 13.5 0 13.5zM835.6 794.7c3.9-2.4 7.2-5.8 9.3-9.9 1.6-3.2 1-7.4-2.4-9.2-3-1.6-7.5-1-9.2 2.4-.3.7-.7 1.4-1.2 2-.1.2-.9 1.3-.3.5.6-.8-.3.3-.4.4l-1.5 1.5c-.9.8-.1.4.1 0-.1.3-1 .6-1.2.8-3 1.8-4.4 6.1-2.4 9.2 1.9 2.9 6 4.2 9.2 2.3zM858 765c.6-1.5 1.3-3 1.9-4.4.8-1.7 1.2-3.3.7-5.2-.4-1.6-1.6-3.3-3.1-4-1.6-.8-3.5-1.2-5.2-.7-1.6.5-3.3 1.5-4 3.1-.6 1.5-1.3 3-1.9 4.4-.8 1.7-1.2 3.3-.7 5.2.4 1.6 1.6 3.3 3.1 4 1.6.8 3.5 1.2 5.2.7 1.6-.5 3.3-1.5 4-3.1zM868.2 726.6c-.1-1.6-.2-3.1-.2-4.7-.1-1.8-.7-3.5-2-4.8-1.2-1.2-3.1-2-4.8-2-3.5.2-6.9 3-6.7 6.7.1 1.6.2 3.1.2 4.7.1 1.8.7 3.5 2 4.8 1.2 1.2 3.1 2 4.8 2 3.4-.1 6.9-2.9 6.7-6.7zM699.9 704.2c-.3 1.2-.6 2.3-.9 3.5-.4 1.7-.2 3.6.7 5.2.8 1.4 2.4 2.7 4 3.1 1.7.4 3.7.3 5.2-.7 1.5-.9 2.7-2.3 3.1-4 .3-1.2.6-2.3.9-3.5.4-1.7.2-3.6-.7-5.2-.8-1.4-2.4-2.7-4-3.1-1.7-.4-3.7-.3-5.2.7-1.5.9-2.7 2.3-3.1 4zM725.1 678.3c-3.7 3.6-6.8 7.8-9.1 12.5-1.6 3.3-.9 7.3 2.4 9.2 2.9 1.7 7.6.9 9.2-2.4.9-2 2-3.8 3.3-5.6.1-.1.7-.9.3-.4.3-.4.6-.7.9-1.1.8-.9 1.6-1.8 2.5-2.6 2.6-2.5 2.5-7 0-9.5-2.5-2.7-6.8-2.6-9.5-.1zM742.8 661.4c-2.1 1.2-4.3 2.4-6.4 3.5-3.1 1.7-4.4 6.2-2.4 9.2 2 3.1 5.9 4.2 9.2 2.4 2.1-1.2 4.3-2.4 6.4-3.5 3.1-1.7 4.4-6.2 2.4-9.2-2-3.2-5.9-4.3-9.2-2.4zM785.4 660.5c-6.2-1.2-12.3-1.1-18.4.3-8.4 2-4.9 15 3.6 13 3.7-.9 7.5-1 11.3-.3 3.6.7 7.3-1 8.3-4.7.9-3.3-1.2-7.6-4.8-8.3zM808.5 677c1.1.6 2.3 1.2 3.4 1.8 1.6.8 3.4 1.2 5.2.7 1.6-.4 3.3-1.6 4-3.1.8-1.6 1.2-3.5.7-5.2-.5-1.6-1.5-3.2-3.1-4-1.1-.6-2.3-1.2-3.4-1.8-1.6-.8-3.4-1.2-5.2-.7-1.6.4-3.3 1.6-4 3.1-.8 1.6-1.2 3.5-.7 5.2.6 1.6 1.6 3.2 3.1 4zM835.2 688.4c.6.7 1.2 1.5 1.8 2.2.6.7 1.3 1.1 2.2 1.4.8.4 1.7.6 2.6.6 1.7 0 3.6-.7 4.8-2 1.2-1.3 2.1-3 2-4.8-.1-.6-.2-1.2-.2-1.8-.3-1.1-.9-2.1-1.7-3-.6-.7-1.2-1.5-1.8-2.2-.6-.7-1.3-1.1-2.2-1.4-.8-.4-1.7-.6-2.6-.6-1.7 0-3.6.7-4.8 2-1.2 1.3-2.1 3-2 4.8.1.6.2 1.2.2 1.8.3 1.1.9 2.1 1.7 3zM31.2 718.4s-.3.7-.8 1.9-1.2 3-2.4 5.2c-.5 1.1-1.2 2.3-1.9 3.6-.7 1.3-1.5 2.7-2.4 4.2-.9 1.5-1.9 3-2.9 4.6-1.1 1.6-2.2 3.3-3.5 5-1.3 1.7-2.6 3.5-4 5.3-1.4 1.8-2.9 3.6-4.6 5.4-3.2 3.7-6.8 7.3-10.6 11-1 .9-1.9 1.8-2.9 2.7-1 .9-2 1.8-3.1 2.7-2.1 1.8-4.2 3.5-6.4 5.3-2.2 1.7-4.4 3.4-6.7 5-1.1.8-2.3 1.7-3.5 2.4l-3.6 2.4c-4.5 2.9-9.6 5.9-14.4 8.6-2.4 1.3-4.9 2.6-7.3 3.8-2.4 1.2-4.8 2.4-7.2 3.5-4.8 2.2-9.4 4.1-13.9 5.9-2.2.9-4.4 1.7-6.6 2.4-2.1.7-4.2 1.4-6.2 2.1-2 .6-3.9 1.2-5.7 1.8-1.8.5-3.6 1-5.2 1.5-3.3.9-6.2 1.6-8.6 2.1-2.4.5-4.3.9-5.6 1.1-1.3.2-2 .3-2 .3s.6-.4 1.7-1.2c1.1-.7 2.7-1.8 4.7-3.1 4.1-2.6 10-6.3 17.1-10.5 7-4.2 15.2-9 24-14.3 2.2-1.3 4.4-2.6 6.6-4 2.2-1.4 4.5-2.7 6.7-4.1 4.5-2.8 8.9-5.6 13.6-8.6l3.3-2.2c1.1-.7 2.2-1.5 3.3-2.2l6.6-4.5c2.1-1.5 4.3-3 6.4-4.5 2.1-1.5 4.1-3.1 6.1-4.5 4-3 7.9-6 11.4-8.9 3.6-2.9 6.9-5.7 10-8.4 1.5-1.3 3-2.6 4.4-3.9 1.4-1.2 2.7-2.4 3.9-3.5 1.2-1.1 2.4-2.2 3.4-3.2 1.1-1 2-1.9 2.9-2.7 1.8-1.6 3.1-3 4.1-3.9 1.3-1.1 1.8-1.6 1.8-1.6zM14.4 690.9s-.4.5-1.2 1.3c-.8.9-1.9 2.1-3.5 3.5-.4.4-.8.8-1.3 1.2-.4.4-.9.8-1.4 1.2-1 .8-2.1 1.7-3.3 2.6-1.2.9-2.5 1.8-4 2.7-.7.5-1.4.9-2.2 1.4-.8.4-1.6.9-2.4 1.3-.8.5-1.6.9-2.5 1.3-.9.4-1.7.9-2.6 1.3-.9.4-1.8.8-2.8 1.2-.9.4-1.9.8-2.9 1.2-3.9 1.6-8.2 3-12.6 4.2-2.2.7-4.5 1.2-6.8 1.7s-4.6 1-7 1.5c-1.2.2-2.3.4-3.5.6l-1.8.3-1.8.3c-1.2.2-2.3.3-3.5.5l-3.6.5c-4.8.6-9.6 1-14.3 1.3-1.2.1-2.4.1-3.5.2-1.2 0-2.3.1-3.5.1-2.3.1-4.6.1-6.9.1-9 0-17.4-.6-24.6-1.5-7.2-.9-13.1-2.1-17.2-3-2.1-.5-3.7-.9-4.8-1.2-1.1-.3-1.7-.5-1.7-.5s.6-.1 1.7-.4c1.1-.2 2.8-.6 4.8-.9 2.1-.4 4.6-.8 7.5-1.3 1.4-.2 3-.5 4.6-.7 1.6-.2 3.3-.5 5-.8 1.8-.2 3.6-.5 5.5-.8 1.9-.3 3.8-.5 5.8-.8 4-.5 8.2-1.1 12.6-1.6 4.3-.5 8.8-1.1 13.4-1.7 4.5-.6 9.2-1.1 13.8-1.7 4.6-.6 9.2-1.1 13.8-1.7 2.3-.3 4.5-.6 6.7-.8 2.2-.3 4.4-.6 6.5-.9 4.2-.6 8.3-1.3 12.2-2 3.9-.7 7.5-1.5 10.8-2.3.8-.2 1.7-.4 2.5-.6.8-.2 1.6-.4 2.3-.6 1.5-.4 3-.8 4.3-1.2 1.4-.4 2.6-.8 3.8-1.2 1.2-.4 2.3-.8 3.2-1.1 1-.4 1.9-.6 2.6-.9.8-.3 1.4-.6 2-.8 1.2-.3 1.8-.5 1.8-.5zM389.3 471.4c-4.2-5.4-11.1-7.1-17.6-6-4.9.8-6.6 8.1-3 11.3 4 3.5 8.3 6 13.3 7.9 3 1.1 5.9-.8 7.6-3.1 1.1-1.5 1.7-3.8 1.5-5.7-.4-3.5-2.8-6.9-6.7-6.7-3.3.1-7.2 3-6.7 6.7.1 1.2.2.8.3-1.1 2.5-1 5.1-2.1 7.6-3.1-2.3-.8-5.5-2.7-7.3-4.4-1 3.8-2 7.5-3 11.3-1.4.2.9 0 1.3.1-1.5-.2.9.3 1.2.5-1.6-.7 1.5 1.2.2.2.6.5 1.2 1.2 1.7 1.8 2.2 2.9 7.2 2.3 9.5 0 3-3 2.4-6.8.1-9.7zM361.2 455.1c-41.1-13-84.3-18.9-127.4-17.5-8.7.3-8.7 13.8 0 13.5 42-1.4 83.7 4.4 123.8 17.1 8.3 2.5 11.8-10.5 3.6-13.1zM408.3 507.7c8.7 0 8.7-13.5 0-13.5-8.6.1-8.7 13.5 0 13.5z"/><path class="st8" d="M756.4 716c-.2.1-.3.2-.5.4s-.4.4-.7.6c-.3.3.2.1 2-1.4 0 0-.1 0-.1.1-.2 0-.4.2-.7.3z"/><path class="st8" d="M863 720c-1.8-13.8-9.8-25.6-20.1-34.5-7.7-6.6-17.7-11-27.4-13.9-11.1-3.3-22.8-5.8-34.3-7-29.3-2.9-60.6 7.8-73.3 36.4-5.7 12.9-5.1 28.6 1.6 41.1 7.3 13.7 21.3 25.1 37.5 25.2 6.6 0 12.6-1.2 17.8-5.5 4.6-3.8 8.4-10.4 8.7-16.5.6-11.7-7.5-25.1-20.1-26.4l.6-.9c0-.1.1-.1.1-.2.4-.4.9-.7 1.3-1.1.2-.2.6-.5 1.2-.9s1.3-.9 1.9-1.4c-.4.3-.7.6-1 .9 1.1-.6 2.3-1.1 3.4-1.5h.2c2.5-.6 5-1 7.6-1.2h.1c8.3.1 16.6 1.4 24.7 3.2 5.5 1.4 10.9 3.1 16 5.5 0 0 .1 0 .1.1.8.5 1.6 1 2.4 1.6.3.2.9.8 1.4 1.3.3.3.7.9.9 1.2.2.4.3.7.5 1.1 0 .1.1.1.1.2.1.4.2.9.2 1.3v.2c-.1 1.1-.2 2.1-.3 3.2v.2c-.8 2.4-1.7 4.7-2.8 7 0 0 0 .1-.1.1-1.3 2.2-2.8 4.4-4.4 6.5-1.1 1.5-2.4 3-3.6 4.5-.1.2-.3.3-.4.5l-.1.1c-5.8 5.8-12.1 11-18.8 15.8-1.6 1.2-3.3 2.3-4.9 3.4-.1 0-.1.1-.1.1-.3.2-.5.3-.8.5-3.4 2.1-6.9 4-10.5 5.8-6.5 3.3-13.2 6-20.1 8.4-18.2 5.3-37 7.3-55.8 8.2-23 .8-46.3 1-68.9-3.6h-.1c-8.3-2.2-16.4-5.1-24.2-8.9h-.1c-3.1-1.8-6.2-3.8-9.1-5.9-1.7-1.3-3.3-2.6-4.9-4l-.1-.1c-.8-.8-1.5-1.5-2.2-2.3-6.3-6.9-11-14.9-16.5-22.3-14.4-19.5-36-31.3-60.5-30.8-45 1-84 28.8-121.7 50.3-19.8 11.3-40.1 21.8-61.7 29.1-11.9 3.5-24 5.9-36.3 6.8h-.1c-7.7.1-15.5-.4-23.1-1.8h-.1c-2.6-.8-5.2-1.7-7.7-2.8-.1-.1-.2-.2-.3-.4-.6-.6-1.1-1.3-1.6-1.9-.1-.2-.2-.4-.3-.5l-1.2-2.7v-.2c-.4-1.7-.7-3.4-.9-5.1v-.2c.1-2.1.3-4.1.6-6.2v-.1c1.1-3.5 2.4-7 4-10.3v-.1c2.5-4.2 5.2-8.2 8.2-12.1 1.8-2.3 3.7-4.5 5.6-6.7l2.3-2.3c2.2-2.2 4.5-4.3 6.8-6.3.1-.1.3-.2.4-.2 1.7-.4 3.5-.7 5.2-1.1 36.1-8 71.6-20.7 99.3-46.2 24.7-22.7 43.7-52.6 51.8-85.2 4.7-19 6.6-37.4 5.1-57-1.5-20.4-8.8-39.2-20-56.2-11-16.6-26.6-28.9-44.1-38.1-17.3-9-36.2-13.8-55.2-17.7-37.6-7.8-76.8-8.6-114.8-3.4-20 2.7-39.5 7.5-58.6 13.7-18.8 6.1-35.3 15.9-49.9 29.3-13.9 12.8-28.1 26.4-39.5 41.6-13.3 17.7-19.8 37.8-24.4 59.2-3.8 18-7.7 36.8-7.5 55.2 0 4.1.2 8 .6 11.9 0 .5-.3.9-.8 1-2 .3-4.1 1-6.1 1.9-6 2.8-12.1 5.3-18.3 7.5h-.1c-5.8 1.6-11.6 2.8-17.6 3.4h-.1c-3.6 0-7.1-.3-10.6-.9h-.1c-2.6-.8-5.1-1.7-7.6-2.8 0 0-.1 0-.1-.1-1.5-.9-2.9-1.9-4.2-3l-.1-.1c-.6-.6-1.1-1.3-1.7-1.9.2.3-.6-.6-1.2-1.6-.4-.6-.8-1.1-1.2-1.7.4.5.7.9 1 1.3 0-.1-.1-.1-.1-.2-.7-1.4-1.4-2.9-2-4.4v-.1c-.8-3.3-1.3-6.6-1.6-10v-.1c0-6.7.9-13.2 2.2-19.8v-.1c2.9-11.2 7.1-21.9 12.3-32.2 6.9-12.3 15.1-23.8 24.2-34.6 2.3-2.7 4.7-5.4 7.1-8.1l.3-.3.1-.1c1.4-1.5 2.8-2.9 4.2-4.3 5.2-5.2 10.5-10.3 16-15.3 23.7-21.3 49.6-40.1 73.9-60.7 12.3-10.4 24.2-21.2 35.2-32.9 12.5-13.3 24.8-27.5 30.5-45.2 6.7-20.6 5.1-42.3-7.1-60.5-10.4-15.4-27.8-23.4-45.4-27.4-18.6-4.1-41.5-2-55.8 11.8-9.7 9.5-14 22.1-12.9 35.9.8 10.5 7.2 22.4 16.7 27.5 6 3.2 11.4 5.4 18.4 4.2 5.8-1 12.3-4.8 15.5-9.8 3.5-5.3 5.6-12 4.2-18.4-.2-1.1-.5-2.2-.9-3.3-.2-.6.3-1.2.9-1.2 2 .2 4.1.4 6.1.8h.1c2.8.8 5.5 1.8 8.1 3 0 0 .1 0 .1.1l2.7 1.8c.4.3.9.7 1.3 1l.1.1c.4.5.9 1 1.3 1.5-.1-.2-.2-.5-.3-.7.1.3.2.5.3.8.1.1.2.2.2.3 1.2 1.5 1.3 2.5.7 1.6.3.5.5 1.1.8 1.6 0 .1.1.1.1.2l.6 3.6v.2c-.1 2.1-.3 4.2-.6 6.3v.1c-.9 3.1-2.1 6-3.5 8.9 0 0 0 .1-.1.1-3.6 6-7.9 11.5-12.5 16.8-.3.3-1.6 1.7-2.4 2.6-.8.9-1.8 1.9-2 2.1-3 3.1-6.1 6.1-9.2 9.1-12 11.4-24.7 22.1-37.6 32.5-25.1 20.4-51.3 40-74.2 63.1-23.7 24-44.7 50.9-57.1 82.6-12.6 32.2-18 73.8 5.7 102.4 13.4 16.2 34.8 25.4 55.6 26h.5c-4.2 1.8-8.5 3.4-12.8 4.9-24.3 7.2-49.5 10-74.6 12.7-12.7 1.3-22.4 16-19.7 28.2 3 13.6 14.6 21.1 28.2 19.7 29.6-3.1 58.9-6.9 87.2-16.6.9-.3 1.6.8.9 1.5l-2.5 2.5c-6.3 6.2-12.9 12.1-19.7 17.8-7 5.8-14.1 11.4-21.5 16.7-3.7 2.7-7.5 5.4-11.4 8-2 1.4-4.1 2.8-6.2 4.1-1.2.8-2.5 1.6-3.7 2.4h-.1c-17.3 10.4-34.7 20.5-52.7 29.7-20.3 10.4-40.9 20.1-61.6 29.9-11.5 5.4-17.9 20.6-11.8 32.3 6.1 11.6 20 17.6 32.3 11.8 13.7-6.4 27.4-13 41-19.7.5-.2 1.1 0 1.3.5.3 1 .7 1.9 1.2 2.9 6 11.5 20.1 17.8 32.3 11.8 65.7-32.5 127.7-72.9 183.8-120-3.4 10.2-7.6 20.1-12.5 29.6-6 10.7-12.8 20.9-20.3 30.5-3.8 4.9-7.7 9.6-11.8 14.2-1.8 2.1-3.7 4.1-5.5 6.1-1.3 1.3-2.5 2.7-3.8 4C19 890.7 2 905.8-13.1 922.7c-5.6 6.2-10.7 12.8-14.7 20.1-8 14.7-12.1 30.9-11.5 47.8.8 18.7 8.7 36.5 21.2 50.4 12.1 13.5 28.4 25.1 46.2 29.5 13.6 3.3 26.4 3.5 39.7-1.2 10.6-3.7 20.2-11.8 26.5-21.1 14.2-20.6 15.8-48 5.4-70.6-5-10.9-19.5-16.8-30.5-11.1-11.1 5.8-16.5 18.8-11.1 30.5.5 1.1 1 2.2 1.4 3.3.6 2.3 1 4.7 1.2 7-.1 2.3-.3 4.6-.6 6.9-.6 2-1.3 3.9-2.2 5.7-.6 1-1.2 1.9-1.9 2.8-.3.4-.7.8-1 1.2-.5.5-1.1.9-1.7 1.4-.9.4-2.1.9-3.1 1.4-1 .2-2 .4-3 .5-1.9-.1-3.9-.3-5.8-.6-3.4-1-6.7-2.3-9.9-3.8-2.8-1.7-5.6-3.5-8.2-5.6l-2.1-1.8c-.4-.3-1.2-.9-1.7-1.4l-.1-.1c-.3-.2-.6-.5-.9-.7.3.2.5.4.8.6-.7-.7-1.4-1.5-2.1-2.3-1.4-1.6-2.7-3.2-4-4.8-.5-.6-.9-1.2-1.4-1.9-1.6-2.9-3-5.9-4.2-9-.6-2.5-1.1-5-1.4-7.6.1-4 .6-7.9 1.3-11.9.9-3.5 2.1-6.8 3.6-10 1.8-3.1 3.9-6 6.1-8.8 1.5-1.9 3.1-3.8 4.7-5.7.9-1.1 1.8-2.1 2.8-3.1l.1-.1c8.2-8.5 16.7-16.6 25.1-24.9 19.4-18.9 38.4-38.7 53.6-61.2-4.3 31.7-2.8 64.7 5.6 95.5 10.3 37.9 29.4 72.1 59.4 97.9 17.2 14.8 39.4 26.5 62.8 23.1 26.7-3.9 43.5-29 45.9-54.4 1.2-12.5-.2-26-3.4-38.2-3.2-12.4-8.1-24.8-17.5-33.8-6.9-6.7-14.9-12.1-24.7-13.1-11.4-1.2-21.6 3.4-28.9 12-8.6 10-9 24.5-7.3 36.8 1.6 11.9 21.8 9.8 33.5 7.1l1.6 11.2c-.8-5.1-1.5-10.2-1.6-11.2.1 4.8 2.2 22.6 1.7 30-.4 1.3-.9 2.6-1.5 3.9-.4.7-.9 1.4-1.4 2-.1.1-.2.3-.3.5l-.2.2c-.2.2-.4.4-.7.5-.6.2-1.6.7-2.5 1.1-.3 0-.5.1-.8.1-1.3-.1-2.5-.2-3.8-.4-2.9-.9-5.7-2-8.4-3.3-3.3-2-6.5-4.1-9.6-6.5-1.8-1.4-3.6-2.8-5.4-4.3-1.1-.9-3.9-3.6-4.1-3.8-5.6-5.7-10.8-11.6-15.5-18.2-1.3-1.8-2.5-3.6-3.7-5.4l-1.2-2.1c-2.3-4-4.5-8-6.5-12.1-3.6-7.4-6.7-15-9.3-22.8-4.8-16.1-7.6-32.8-8.6-49.6-.5-19.8 1.5-39.6 5.6-59 3.7-15.2 8.8-30.1 15.3-44.4 2.9-4.8 6.1-9.3 9.7-13.7.9-1.2 1.9-2.3 2.9-3.5.3-.4.7-.8 1-1.1 1-1.1 1.2-1.3 1-1 2.9-2.9 5.9-5.6 9-8.3 3.1-2.6 6.3-5 9.6-7.3.6-.4 1.2-.8 1.9-1.3.7-.4 1.5.2 1.3 1-5.9 26.1 1.4 56.4 25.8 70.3 14.5 8.3 31.3 11.5 48 11.7 15.3.1 30.4-1.5 45.2-5.2 28.9-7.4 55.4-20.2 81.2-34.9 26.3-15 52.3-32.5 81.1-42.5h.1c6-1.7 12.1-2.9 18.2-3.5h.1c3 0 5.9.3 8.8.7h.2c1.7.5 3.4 1.2 5.1 1.9.1 0 .1 0 .1.1.8.5 1.6 1.1 2.4 1.6.3.2 1 .7 1.6 1.3.4.4.9.8 1.3 1.1l-.9-.6c3.2 3.4 5.9 7.2 8.6 11 5.5 7.9 10.7 15.7 17.6 22.5 16.5 15.9 36.8 27 59.1 32.4 24 5.8 47.9 6.8 72.5 6.2 23.8-.6 48-1.5 71.2-7.6 22.5-5.9 43-15.5 62.1-28.8 18-12.6 33.7-28.6 43.3-48.6 5.5-10.7 7.5-23.4 5.9-35.7zm-50.2 3.6l.1.1c-1.1-1-1.9-2-.1-.1zM113.3 347.7zM-77.2 810.9c-1.5.9-5.3 3.2 0 0zm131.4 214.2c.1-.1.1-.1 0 0l.1-.1c.1 0 0 0-.1.1zm.1-.1c-.1 0-.1.1 0 0-.2.1-.3.2-.5.3.2-.1.3-.2.5-.3zm171.8 8.6zm-1.3.5c0-.1.1-.1.2-.2h.1c-.1 0-.2.1-.3.2zm-.1 0c-.9.7-.6.5 0 0zm1-.7c-.1.1-.2.1-.2.2h-.1c.1-.1.2-.1.3-.2zm27.6-239.2z"/><path class="st8" d="M522.9 769s0-.1 0 0l-.5-.5c-.2-.2-.4-.4-.6-.5-.3-.3-.7-.5-1-.8-.4-.2 0 .2 2.1 1.8zM113.8 348.8c-.1-.1-.1-.1 0 0 .4.9.7 1.6.9 1.9-.3-.7-.7-1.3-.9-1.9zM163.2 896.7c.4.3.8.7 1.2 1.1 1 .8 1.5 1-1.4-1.3.1.1.2.1.2.2zM180.7 785c.7-.6 1.6-1.7 1.9-2l-.3.3c-.5.4-1 1.2-1.6 1.7zM153.9 885.2c-.1-.2-.6-.9-1.8-2.4l1.8 2.4zM21.2 1015.7c.6.4.5.2-1.9-1.7l.1.1c.6.5 1.2 1.1 1.8 1.6z"/><path class="st9" d="M216.4 636.7c.4-11.3-6.9-23-18.6-24.8-5.6-2.4-12.2-2.4-18.6.1-10.1 4-18.8 10.7-23.1 20.9-5.3 12.4-1.7 28.9 9.8 36.6 11.7 7.8 27.1 6.7 37.8-2.3 9-7.6 12.3-19.1 12.7-30.5z"/><path class="st8" d="M204.2 634.6c-.2-3.1-2.1-5.7-4.7-7.3-2.3-4.1-7.2-6.6-12-5.7-16.4 2.9-27.5 24.6-14.5 37.7 6.6 6.6 17.1 6.1 24 .3 7.6-6.4 7.9-16 7.2-25z"/></g><g id="fish_4_"><path class="st8" d="M2228.2 769.1c-.4-6.1-3.8-13.2-9-17.1-10.2-7.6-27.5-8.6-36.9 1.3-.2-.1-.3-.2-.4-.3-2-1.4-4.1-2.8-6-4.3-4.2-3.1-8.2-6.3-12-9.7-3.7-3.2-7-6.8-10.6-10.1 6.3 5.8-.2-.3-1.7-2.1-1.7-2-3.4-4-5.1-6.1-5.6-7.1-10.6-14.6-15-22.4-6.3-12.1-12-24.6-19.3-36.2-8.7-14.1-20.4-25.3-35.2-34-3.3-2-7.4-2.8-11.6-2.7-.6-5.8-3.4-11.2-8.7-14.8-10.8-7.3-22.8-12.3-36.2-13.7-9.6-1-19.1-1-28.7-.7-10.1-2-20.6-2.7-31.4-2.6-13 .2-26.1 1.5-39.1 3.3-2.5-.1-4.9-.2-7.4-.4-8.7-.5-17.5-1.3-25.9-3.4-.6-.2-1.1-.4-1.7-.7l-.6-.3c.6-3 1.4-5.9 2.1-8.9 1.6-6 2.4-11.9 2.6-18 .5-12.3-4.9-25.4-15.2-33.4-20.6-16-48-8.9-70.9-1.3-38.2 12.6-74.8 34.4-98 65.8-9.9 13.5-18 28-22.8 43.6-71.3 23.4-139.1 57.4-199 100.1-9 6.4-17.9 13.1-26.5 19.9-12.3 9.7-23.1 19.3-27.8 34.1-9.2 28.8 21 52.5 44.8 64.8 20.7 10.7 44.6 16.8 67.5 22.2 23.2 5.5 46.8 9.5 70.5 12.3 97.8 11.4 197.9 4.2 295.7-6.7 50.5-5.6 101-13.5 150.3-25.6 23.7-5.8 47-12.7 69.9-20.9 20.6-7.4 41.9-15.3 60.6-26.5 8.5 3 17.7 2.6 25.6-2.3 8.3-5.3 11.7-13.3 11.9-22.3 0-1.3.1-2.6.1-3.9 0-1.9-.3-3.7-.8-5.5 1.4-3.1 2.2-6.6 1.9-10.5zM1882.5 590z"/><path class="st9" d="M1582.3 775.8c.5 0 1.1-.1 1.6-.1 3.4-.1 6.4-1 9.2-2.7 2.9-1.2 5.4-3 7.5-5.5 2.2-2.4 3.7-5.1 4.5-8.2 1.3-3 1.8-6.2 1.5-9.5-.4-2.1-.9-4.3-1.3-6.4-1.4-4-3.7-7.5-7-10.3-1.7-1.2-3.4-2.3-5.2-3.5-3.9-1.9-8.1-2.8-12.5-2.5-.5 0-1.1.1-1.6.1-3.3.2-6.4 1-9.2 2.7-2.9 1.2-5.4 3-7.5 5.5-2.2 2.4-3.7 5.1-4.5 8.2-1.3 3-1.8 6.2-1.5 9.5.4 2.1.9 4.3 1.3 6.4 1.4 4 3.7 7.5 7 10.3 1.7 1.2 3.4 2.3 5.2 3.5 3.9 2 8.1 2.8 12.5 2.5zM1710 682.9s.6.5 1.7 1.4c.5.5 1.2 1.1 2 1.8s1.6 1.6 2.6 2.5c1 .9 2 2 3.1 3.2.6.6 1.1 1.2 1.7 1.9l1.8 2.1c2.5 2.9 5 6.3 7.7 10.1 2.6 3.9 5.2 8.2 7.7 13 2.4 4.8 4.7 10 6.7 15.5.5 1.4 1 2.8 1.4 4.2.4 1.4.9 2.9 1.3 4.3.8 2.9 1.6 5.9 2.2 8.9l.2 1.1.1.6.1.6.4 2.2.4 2.2.3 2.4c.2 1.6.4 3.1.6 4.7.1 1.6.3 3.1.4 4.7.4 6.3.4 12.5 0 18.7-.2 3.1-.5 6.1-.9 9.1-.1.7-.2 1.5-.3 2.2-.1.7-.2 1.5-.4 2.2-.2 1.5-.5 2.9-.8 4.4-.6 2.9-1.2 5.7-1.9 8.4-.8 2.7-1.5 5.4-2.4 7.9-.4 1.3-.8 2.5-1.3 3.7-.5 1.2-.9 2.4-1.3 3.6-1 2.3-1.9 4.6-2.8 6.7-2 4.3-4 8-6.1 11.2-2.1 3.2-4.1 5.8-6 7.8-1.8 2-3.4 3.4-4.5 4.4-1.1.9-1.7 1.4-1.7 1.4s.5-.6 1.4-1.7c.9-1.1 2.1-2.8 3.6-5 1.4-2.2 3-5 4.5-8.3 1.5-3.3 3-7.2 4.4-11.4.7-2.2 1.4-4.4 2.1-6.7.6-2.3 1.3-4.7 1.9-7.3 1.2-5 2.3-10.3 3.1-15.9.2-1.4.4-2.8.5-4.2l.3-2.1c.1-.7.1-1.4.2-2.1.1-1.4.3-2.9.3-4.3.1-1.4.2-2.9.3-4.4.3-5.8.2-11.8-.2-17.7-.1-1.5-.2-3-.3-4.4-.1-1.5-.3-2.9-.5-4.4l-.3-2.2-.3-2.2-.3-2.2-.1-.5-.1-.5-.2-1.1c-1.1-5.7-2.4-11.4-4-16.7-1.6-5.3-3.4-10.4-5.4-15.2-2-4.7-4.1-9.1-6.2-13.1-2.1-4-4.2-7.6-6.2-10.7-.5-.8-1-1.5-1.4-2.3-.5-.7-.9-1.4-1.4-2.1-.9-1.3-1.7-2.6-2.5-3.6-.8-1.1-1.5-2-2.1-2.9-.6-.8-1.2-1.5-1.6-2.1l-1.5-1.8zM1435.5 792.6s.2-.1.5-.3c.3-.2.8-.6 1.4-.9 1.3-.8 3.2-1.8 5.9-2.6s6.1-1.5 10-1.6c2-.1 4.1 0 6.3.3.6.1 1.1.1 1.7.2.6.1 1.1.2 1.7.3.6.1 1.1.2 1.7.3.6.1 1.2.3 1.8.4 4.7 1.1 9.6 2.8 14.7 4.8 2.5 1 5.1 2.1 7.7 3.1 2.6 1 5.3 2 8 3.1 1.4.6 2.7 1 4.1 1.5 1.4.5 2.7 1 4.1 1.5 1.4.5 2.8.9 4.2 1.4 1.4.5 2.9.9 4.3 1.4 2.9.9 5.8 1.7 8.7 2.5 2.9.8 5.9 1.5 8.9 2.3 3 .7 6 1.3 9 2 3 .5 6 1.1 8.9 1.6 3 .4 5.9.8 8.9 1.3l8.7.9c2.9.2 5.7.3 8.4.5 2.8.1 5.5.1 8.1.2 1.3.1 2.6 0 3.9 0 1.3 0 2.5-.1 3.8-.1 2.5 0 4.9-.2 7.2-.4s4.5-.3 6.6-.6c2.1-.2 4.1-.5 6-.7 1.9-.3 3.6-.6 5.2-.8 1.6-.3 3.1-.5 4.4-.7 2.6-.6 4.8-1 6.2-1.3 1.4-.3 2.2-.4 2.2-.4l-2.1.9c-1.4.6-3.3 1.4-5.9 2.4-2.6.9-5.8 2-9.5 3.1-3.7.9-7.9 2.1-12.6 2.8-2.3.4-4.8.9-7.3 1.1-1.3.1-2.6.3-3.9.4-1.3.1-2.7.3-4 .4-1.4.1-2.7.2-4.1.2-1.4.1-2.8.2-4.2.2h-8.8c-3-.2-6-.3-9.1-.5-3-.3-6.1-.6-9.2-1-3.1-.5-6.2-.9-9.3-1.5-3.1-.7-6.2-1.2-9.3-2-3.1-.8-6.2-1.5-9.2-2.4-1.5-.5-3-.9-4.5-1.4-1.5-.5-3-.9-4.5-1.4-2.9-1-5.9-2-8.7-3.1-2.8-1.2-5.7-2.2-8.4-3.4-1.3-.6-2.7-1.2-4-1.8-.7-.3-1.3-.6-2-.9l-1-.4-1-.5c-2.5-1.2-5-2.4-7.4-3.6-4.8-2.3-9.3-4.4-13.5-5.9-.5-.2-1-.4-1.6-.5-.5-.2-1.1-.3-1.6-.5-.5-.1-1-.3-1.5-.4-.5-.1-1-.3-1.5-.4-2-.5-3.9-.8-5.7-1-3.7-.4-6.9-.3-9.5 0-2.6.4-4.7.9-6.1 1.5-.7.2-1.2.5-1.6.6-.4-.3-.6-.2-.6-.2zM1604.2 725.3s-.2 0-.5-.1-.9-.1-1.5-.3c-.6-.2-1.4-.3-2.2-.5-.4-.1-.8-.2-1.3-.3-.5-.1-.9-.2-1.4-.3-1-.3-2-.5-3.1-.7-1.1-.3-2.2-.5-3.4-.8-1.2-.2-2.4-.6-3.6-.8-1.2-.3-2.5-.5-3.7-.8-1.2-.2-2.5-.5-3.7-.7-1.2-.2-2.4-.5-3.6-.7-1.2-.2-2.3-.5-3.4-.6-1.1-.2-2.2-.4-3.2-.6-1-.2-1.9-.4-2.7-.5-.8-.2-1.6-.3-2.2-.4-.6-.1-1.1-.3-1.5-.3-.3-.1-.5-.1-.5-.1s.1-.1.4-.3c.3-.2.7-.5 1.3-.8.6-.4 1.2-.7 2.1-1.1.4-.2.8-.4 1.3-.6.5-.2 1-.3 1.5-.5s1.1-.3 1.6-.5c.6-.1 1.2-.3 1.8-.4.6-.1 1.3-.2 1.9-.3.7-.1 1.3-.2 2-.2 1.4 0 2.8-.1 4.2.1 1.4.1 2.9.3 4.3.6s2.9.7 4.2 1.2c1.4.4 2.7 1 3.9 1.6.6.3 1.2.6 1.8 1 .6.3 1.1.6 1.6 1s1 .7 1.5 1.1c.5.4.9.7 1.3 1.1.4.4.8.7 1.2 1.1.4.4.7.7 1 1.1.6.7 1.1 1.3 1.5 1.8.4.5.6 1 .8 1.3.2 0 .3.2.3.2z"/><path class="st9" d="M1724.2 683s.8.3 2.3 1c1.5.6 3.7 1.5 6.4 2.9.7.3 1.4.7 2.2 1 .7.4 1.5.8 2.4 1.2 1.6.8 3.4 1.8 5.2 2.9.9.5 1.9 1.1 2.9 1.7l3 1.8c1 .6 2.1 1.3 3.1 2s2.1 1.4 3.2 2.2c.5.4 1.1.7 1.6 1.1.5.4 1.1.8 1.6 1.2 1.1.8 2.2 1.7 3.3 2.5 2.2 1.8 4.5 3.7 6.7 5.7 2.3 2 4.5 4.2 6.8 6.5 2.2 2.3 4.4 4.7 6.5 7.4.5.6 1.1 1.3 1.6 1.9.5.7 1 1.4 1.5 2 1 1.4 2.1 2.7 3 4.2.9 1.4 1.9 2.9 2.9 4.3l2.7 4.5c.9 1.5 1.6 3.1 2.5 4.7l.6 1.2.6 1.2c.4.8.7 1.7 1.1 2.5 1.4 3.3 2.6 6.8 3.6 10.4.5 1.8.8 3.6 1.1 5.5l.1.3v.5l.1.6.1 1.3c0 .4.1.8.1 1.3l.1 1.5c.1 2 0 3.8 0 5.6l-.3 2.7c-.1.9-.3 1.8-.4 2.7-.6 3.6-1.4 7.1-2.6 10.4-1.2 3.3-2.5 6.6-4.1 9.6-1.6 3-3.2 5.9-5.1 8.6-.9 1.4-1.9 2.6-2.8 3.9l-1.5 1.8-.8.9-.7.8c-.5.6-1 1.1-1.5 1.7-.5.6-1 1.1-1.6 1.7-1 1.1-2.1 2.1-3.1 3.1-2.1 2-4.1 3.9-6.1 5.6-4 3.4-7.9 6.3-11.4 8.8-3.5 2.5-6.6 4.5-9.1 6.1-2.5 1.7-4.6 2.9-6 3.7-1.4.8-2.1 1.3-2.1 1.3s.6-.6 1.9-1.7c1.2-1.1 3-2.7 5.3-4.7s5-4.5 8.1-7.3c3.1-2.8 6.5-6.1 10.1-9.8 1.8-1.8 3.6-3.8 5.4-5.9.9-1.1 1.8-2.1 2.7-3.2.4-.5.9-1.1 1.3-1.6.4-.6.9-1.2 1.3-1.8l.7-.9.6-.9c.4-.6.8-1.2 1.3-1.8.8-1.2 1.6-2.5 2.4-3.8 1.6-2.6 3-5.3 4.3-8.1 2.6-5.6 4.5-11.7 5.4-18l.3-2.4.2-2.4c0-1.6.1-3.2 0-4.7v-1.1c0-.4-.1-.8-.1-1.3l-.1-1.3-.1-.6v-.2.1-.4c-.2-1.6-.6-3.1-1-4.7-.8-3.1-1.9-6.2-3.1-9.3-.3-.8-.6-1.5-1-2.3-.3-.8-.7-1.5-1.1-2.3-.7-1.5-1.4-3-2.2-4.4-3-5.8-6.6-11.3-10.4-16.3-1.8-2.6-3.9-4.9-5.8-7.3-2-2.3-4-4.5-6-6.6-2-2.1-4.1-4.1-6-6l-3-2.7c-.5-.4-1-.9-1.5-1.3s-1-.8-1.5-1.3c-1-.8-1.9-1.6-2.9-2.4-.9-.8-1.9-1.5-2.8-2.3-.9-.7-1.8-1.5-2.7-2.1-.9-.7-1.8-1.3-2.6-2-1.7-1.3-3.3-2.4-4.8-3.5l-2.1-1.5c-.7-.5-1.3-.9-2-1.3-1.3-.8-2.4-1.6-3.3-2.3-1-.6-1.8-1.2-2.5-1.6-1.6-.2-2.4-.7-2.4-.7zM1699.3 628.9s.3-.6.9-1.7c.6-1.1 1.4-2.7 2.5-4.7.6-1 1.1-2.1 1.9-3.3.7-1.2 1.6-2.4 2.4-3.8.9-1.4 1.8-2.8 2.8-4.3 1-1.5 2.2-3 3.4-4.6l1.8-2.4c.6-.8 1.2-1.7 2-2.5 1.4-1.6 2.9-3.3 4.4-5 .8-.9 1.5-1.7 2.3-2.6l2.5-2.5c1.7-1.7 3.4-3.5 5.2-5.2 3.7-3.3 7.6-6.8 11.8-9.9 4.1-3.3 8.6-6.1 13-9.1 4.6-2.7 9.1-5.5 13.9-7.7 4.6-2.5 9.5-4.4 14-6.3 1.2-.5 2.3-.8 3.5-1.3 1.2-.4 2.3-.8 3.4-1.2 1.1-.4 2.3-.8 3.4-1.2 1.1-.4 2.2-.6 3.3-1 2.2-.6 4.3-1.2 6.4-1.7 1-.3 2.1-.5 3.1-.7l3-.6c2-.4 3.8-.8 5.6-1.1 1.8-.2 3.5-.4 5.1-.6 1.6-.2 3.1-.4 4.5-.5 1.4-.1 2.7-.1 3.8-.2 2.3-.1 4.1-.2 5.3-.2h1.9s-.6.2-1.8.5c-1.2.3-2.9.8-5.2 1.3-1.1.3-2.3.6-3.7.9-1.3.4-2.7.8-4.3 1.3-1.5.4-3.1.9-4.8 1.4-1.7.5-3.4 1.2-5.3 1.8-1.8.6-3.8 1.2-5.7 2-1.9.7-4 1.5-6 2.3-1 .4-2.1.8-3.1 1.2-1 .5-2.1.9-3.2 1.4-2.1 1-4.3 1.8-6.5 2.8-2.2 1.1-4.4 2.1-6.6 3.2-1.1.5-2.2 1.1-3.3 1.7l-3.3 1.8c-4.5 2.3-8.8 5-13.2 7.6-4.3 2.8-8.6 5.5-12.6 8.6-1 .7-2 1.5-3.1 2.2-1 .7-2 1.5-3 2.3-1.9 1.5-3.8 3.1-5.8 4.5-1.9 1.5-3.6 3.1-5.4 4.6-.9.8-1.8 1.5-2.6 2.2-.8.8-1.6 1.5-2.5 2.3-1.6 1.5-3.2 3-4.7 4.4-1.5 1.4-2.9 2.9-4.2 4.3-1.4 1.4-2.7 2.7-3.9 4-1.2 1.3-2.3 2.6-3.4 3.7-1.1 1.2-2.1 2.3-3 3.3-.9 1-1.7 2-2.5 2.9-1.5 1.8-2.7 3.1-3.5 4.1-.5.8-.9 1.3-.9 1.3zM1730.9 622.3s.2-.3.5-.9c.3-.6.7-1.5 1.4-2.6.6-1.1 1.5-2.4 2.5-3.8.5-.7 1.1-1.4 1.7-2.2.6-.8 1.3-1.6 2-2.4 1.5-1.6 3.1-3.3 5-5 1.9-1.7 3.9-3.4 6.1-5 1.1-.8 2.2-1.6 3.4-2.4 1.2-.8 2.4-1.5 3.6-2.3 2.5-1.5 5-2.8 7.7-4.1 2.5-1.2 5.3-2.4 7.9-3.4 1.3-.5 2.6-1 4-1.5 1.3-.5 2.6-.9 3.9-1.3 2.6-.8 5.1-1.5 7.5-2.1 2.4-.6 4.7-1.1 6.8-1.5 2.1-.4 4-.8 5.8-1 1.7-.3 3.2-.5 4.5-.6 1.2-.2 2.2-.2 2.9-.3.7 0 1-.1 1-.1s-.3.2-.9.5c-.6.3-1.5.8-2.6 1.4-2.2 1.2-5.4 2.8-9.3 4.6-3.9 1.8-8.4 3.8-13.1 5.9-2.4 1.1-4.8 2.2-7.3 3.3-2.5 1.2-4.9 2.2-7.5 3.5-2.4 1.1-4.9 2.4-7.3 3.6-2.4 1.3-4.7 2.5-6.9 3.8-2.2 1.3-4.4 2.5-6.4 3.8-2 1.2-3.9 2.5-5.6 3.7-.9.6-1.7 1.2-2.4 1.7-.8.6-1.5 1.1-2.2 1.6-.7.5-1.3 1-1.9 1.4-.6.5-1.1.9-1.6 1.3-1 .7-1.8 1.4-2.3 1.8-.6.3-.9.6-.9.6zM1806.7 602.5s.1-.2.4-.4c.3-.3.6-.7 1.1-1.2 1-1 2.5-2.3 4.4-3.6 1.9-1.4 4.2-2.8 6.7-4.2 1.3-.7 2.6-1.3 4-1.9 1.4-.6 2.8-1.2 4.2-1.7 1.4-.5 2.9-1 4.3-1.4 1.4-.4 2.9-.8 4.3-1.1 1.4-.3 2.8-.5 4.1-.7 1.3-.2 2.6-.3 3.7-.4 2.3-.1 4.3-.1 5.7 0 .7 0 1.3.1 1.6.2.4 0 .6.1.6.1s-.2.1-.5.4c-.3.2-.7.6-1.3 1-1.1.8-2.8 1.8-4.8 2.9-1 .5-2.1 1.1-3.2 1.7-1.2.6-2.4 1.2-3.7 1.7-.6.3-1.3.6-1.9.8-.7.3-1.3.6-2 .8-1.4.5-2.7 1.1-4.1 1.6-1.4.5-2.8 1-4.2 1.4l-2.1.6c-.7.2-1.4.4-2 .6-2.7.8-5.3 1.3-7.5 1.8-2.3.4-4.2.7-5.6.8-.7.1-1.3.1-1.6.1-.4.1-.6.1-.6.1zM1816.5 654.5s0-.3.4-.8 1.1-1.1 2.2-1.6c1.1-.4 2.3-.8 3.7-1.3 1.5-.4 3.1-.8 5.1-1 1.9-.2 4.2-.2 6.7.4 1.2.3 2.5.8 3.7 1.5.6.4 1.2.7 1.9 1.3.3.3.7.7 1.1 1.2.2.2.3.5.5.8.1.2.1.3.2.5l.1.3.1.2.1.3.1.2c0 .2.1.3.1.5 0 .3.1.6.1.9 0 .5 0 1-.1 1.4l-.2 1c-.1.4-.2.8-.2 1.1-.3 1.4-.9 2.8-1.5 4.1-.7 1.3-1.5 2.6-2.5 3.7-.2.3-.5.6-.8.8-.2.2-.4.4-.4.5-.1.1 0 0 .1-.2.1-.1.1-.3.2-.5 0-.1 0-.2.1-.4v-.5.2s0 .1 0 0v-.3c-.1-.3-.1-.3-.1-.5-.1-.2-.2-.4-.3-.5-.2-.3-.3-.3-.3-.3s.1 0 .2.1l.2.1.3.1c1.1.4 2.3.9 3.6 1.6 1.2.6 2.5 1.3 3.6 2.3l.4.4.1.1.1.1.2.1.4.4c.2.2.3.3.4.5.5.6 1 1.2 1.4 1.9.8 1.3 1.4 2.8 1.6 4.4.1.8.1 1.6 0 2.4V682.6l-.1.5c-.1.5-.2.9-.4 1.2-.6 1.4-1.4 2.5-2.3 3.4-.9.9-1.8 1.5-2.8 2.1-1 .5-1.9.9-2.8 1.1-.4.1-.9.2-1.3.3-.4.1-.8.2-1.2.2-1.5.2-2.8.3-3.9.4-1.1.1-1.9.1-2.5.1-.6 0-.9.1-.9.1s1-.8 2.9-1.8c.9-.5 2.1-1.1 3.4-1.8.3-.2.6-.4.9-.5l.9-.6c.6-.4 1.2-.9 1.7-1.4 1-1 1.9-2.4 2-3.5v-.6l.1-.2.1-.1s-.1.3-.1.1c0-.3-.1-.5-.2-.8-.2-.5-.5-1.1-1-1.6-.2-.3-.5-.5-.8-.8-.1-.1-.1-.1-.2-.1l-.2-.2-.2-.1c.1.1 0 0 .1 0h-.1l-.3-.2c-.7-.4-1.5-.8-2.4-1.2-.9-.4-1.9-.7-3-1.1l-.5-.2-.6-.3c-.4-.2-.9-.4-1.4-.8-.5-.3-1.1-.8-1.6-1.5-.3-.4-.5-.8-.7-1.3-.1-.3-.2-.5-.3-.9 0-.2-.1-.4-.1-.6V669.6v-.7c0-.3.1-.5.1-.8.1-.5.3-1 .5-1.4.4-.8.8-1.3 1.1-1.7.3-.4.6-.6.8-.8l.5-.5c.6-.7 1.2-1.4 1.6-2.1.5-.8.9-1.6 1.2-2.4l.2-.6c0-.1.1-.3.1-.4l.1-.2s0-.1 0 0v-.1c0-.2.1-.3.1-.3v.2c0 .1 0 0 0 0v-.1c.1.2 0 .1 0 .1s0 .1.1.1l.1.1v-.1l-.7-.7c-.6-.5-1.2-.9-2-1.3-1.5-.7-3.1-1.2-4.8-1.4-1.6-.3-3.2-.4-4.7-.5-1.4-.1-2.8-.2-3.7-.3-1 0-1.7.1-2.2.3-.2.1-.4.2-.5.3-.6.1-.7.2-.7.2zM1843.8 654.9l.3-.3c.2-.2.5-.5 1-.9.5-.3 1.1-.7 1.8-1.1.7-.4 1.6-.7 2.6-.9 1-.3 2.1-.4 3.2-.4 1.2 0 2.4.1 3.7.4 1.3.3 2.5.7 3.9 1.4.7.4 1.4.8 2.2 1.5.4.4.8.8 1.1 1.3.1.1.2.2.2.4l.1.2.1.2.1.2v.1l.1.3c.3.8.4 1.3.5 1.9.1.6.1 1.1 0 1.6-.1 1-.4 2-.7 2.7-.3.8-.7 1.5-1.2 2.1l-.3.5-.4.5-.6.6c-.2.3-.5.5-.7.7-.2.2-.5.4-.7.6-.5.4-1 .7-1.4 1-1 .6-1.9 1.1-2.8 1.4-1.8.7-3.3 1-4.4 1.2-.5.1-1 .1-1.3.2h-.5l.2-.4c.2-.3.4-.7.7-1.1.6-.9 1.4-2.2 2.4-3.6.5-.7 1-1.4 1.5-2.2.2-.4.5-.7.7-1.1l.3-.6c.1-.2.2-.3.3-.5.1-.2.3-.5.4-.7-.1.1 0 0 0 .1v-.1l.1-.1.1-.2.3-.9c.1-.3.1-.5.1-.6v-.1l.1.2v.1-.1l-.1-.2.1.2c-.1-.1-.2-.3-.5-.5-.7-.5-1.4-1-2.2-1.4-.8-.4-1.5-.8-2.3-1.2-.8-.3-1.5-.7-2.3-.9-1.5-.5-2.9-.9-3.9-1.1-.3-.1-.5-.1-.7-.2-.2 0-.4-.1-.5-.1-.5-.1-.7-.1-.7-.1zM1892.9 789.1s.1-.1.2-.3c.2-.2.4-.5.6-.9.6-.7 1.4-1.6 2.5-2.6.5-.5 1.1-1 1.8-1.4.3-.2.7-.5 1-.7.3-.2.8-.5.8-.6.1-.1-.1-.2-.6.3v-.1s0-.1 0 0c-.1.1-.2.2-.2.3-.1.1-.1.2-.2.3-.1.2-.1.4-.1.6 0 .3 0 .5.1.6 0 .1.1.2.1.2-.1-.1 0 0 0 0-.1-.1-.6-.4-1.4-.7-.8-.4-1.6-.8-2.3-1.2-1.5-.9-2.8-1.8-3.8-2.8-1.1-1-1.9-1.9-2.5-2.6-.3-.3-.5-.7-.6-.9-.1-.2-.2-.3-.2-.3s.1 0 .4-.1c.2 0 .6-.2 1.1-.2.9-.2 2.1-.3 3.6-.3 1.4 0 3.1.1 4.7.4.8.2 1.7.4 2.5.6.8.3 2 .6 3.4 1.6.2.1.3.3.5.4.2.1.5.5.5.5.3.4.7.8 1 1.3.5.9.8 2 .9 3.1 0 .6-.1 1.2-.3 1.9-.1.3-.2.6-.4 1-.1.2-.2.4-.4.6l-.1.1-.1.1c-1 1.2-2 1.6-2.6 1.8-.7.2-1 .2-1.5.3-.4 0-.8.1-1.2.1-.8.1-1.6.1-2.3.1-1.4 0-2.7-.1-3.6-.3-.4-.1-.8-.2-1.1-.2h-.2zM1853.6 778.4s.1-.1.4-.2c.3-.1.6-.3 1.1-.6.9-.5 2.2-1.1 3.7-1.7 1.4-.6 3.1-1.4 4.8-2.2.2-.1.4-.2.7-.3l.6-.3c.4-.2.8-.4 1.1-.6.3-.2.6-.4.9-.5l.3-.3c.1 0 .1-.1.1-.1s-.2.1-.1.1l.1-.1c.1-.1 0 0 0 0l.1-.1c.1-.1.1-.2.2-.2.1-.2.2-.3.3-.4.1-.1.1-.2.2-.2.2.6 0 .2.1.3v-.2l-.1-.4c0-.1 0 0 0 0s.1 0 .1.1v-.1c0-.1 0-.2-.1-.3-.1-.2-.2-.5-.4-.7-.4-.5-1-1.1-1.6-1.7-.6-.6-1.2-1.1-1.7-1.7-.5-.6-.9-1.1-1.2-1.5-.3-.5-.5-.9-.6-1.2-.1-.3-.2-.4-.2-.4s.2 0 .5.1.7.1 1.2.1 1.1.1 1.8.1 1.4.1 2.3.2c.9.1 1.9.3 3 .8.3.1.6.3.9.5l.9.6c.3.2.6.5.9.9l.4.5c.2.2.3.5.5.7l.2.4.2.3.2.4.1.2c0 .1-.1-.3.1.3l.1.2c.1.2.1.5.2.7.2 1 .1 2-.1 3-.2.9-.5 1.8-1 2.6-.2.4-.5.8-.7 1.1-.1.2-.3.3-.4.5l-.3.3-.2.2-.2.1-.2.1-.1.1c-.2.1-.3.3-.5.4-.3.3-.7.5-1 .7-.7.4-1.4.7-2 1-.7.2-1.3.4-1.9.6-.3.1-.6.1-.9.2-.3 0-.6.1-.8.1-2.3.3-4.4.2-6.2-.1-1.8-.3-3.2-.8-4.2-1.3-.5-.2-.9-.5-1.1-.6-.3-.4-.5-.5-.5-.5zM1618.6 798.3s.2 0 .5.1.8.2 1.3.4c1.1.4 2.7 1 4.4 2 1.7 1 3.6 2.4 5.4 4 1.8 1.7 3.5 3.7 5 5.9.4.6.7 1.1 1.1 1.7.2.3.3.6.5.9.2.3.3.6.5.9.6 1.2 1.2 2.6 1.5 4 .3 1.4.5 2.9.4 4.3v.5l-.1.4c-.1.4-.1.8-.2 1.1-.2.6-.5 1.2-.7 1.8-.6 1.1-1.3 1.9-2.1 2.5-.8.6-1.5 1-2.1 1.2-.6.2-1.2.2-1.5.2h-.5s.1-.1.3-.4c.2-.2.4-.6.7-1.1.5-.9.8-2.3.7-3.7 0-.4-.1-.7-.2-1.1 0-.2-.1-.3-.1-.4 0-.1-.1-.2-.1-.4v-.2.1-.1c-.3-.7-.6-1.5-1.1-2.3-.4-.8-1-1.6-1.6-2.5-.6-.9-1.3-1.9-1.9-2.8-1.3-2-2.6-3.9-3.8-5.8-.6-.9-1.2-1.9-1.7-2.8-.5-.9-1-1.8-1.5-2.6s-.9-1.6-1.3-2.3c-.4-.7-.7-1.3-.9-1.8-.3-.5-.5-1-.6-1.3-.3-.3-.3-.4-.3-.4z"/><ellipse transform="matrix(.9978 -.0659 .0659 .9978 -46.11 105.791)" class="st8" cx="1580.5" cy="751.8" rx="16.2" ry="16.2"/></g><g id="fish_3_"><path class="st8" d="M2121.9 403c.4-4.1-1-9.2-4-12.3-5.9-6.2-17.2-8.8-24.6-3.4l-.2-.2c-1.2-1.2-2.4-2.3-3.5-3.5-2.4-2.5-4.7-5.1-6.9-7.8-2.1-2.6-3.9-5.3-5.9-7.9 3.5 4.6-.1-.2-.9-1.6-.9-1.5-1.8-3.1-2.7-4.6-2.9-5.3-5.3-10.9-7.4-16.6-2.8-8.8-5.2-17.6-8.6-26.2-4.2-10.3-10.7-19.1-19.4-26.5-2-1.7-4.6-2.7-7.4-3.1.2-3.9-1-7.8-4.1-10.8-6.3-6.1-13.7-10.7-22.4-13.2-6.2-1.8-12.5-2.9-18.9-3.7-6.5-2.5-13.3-4.2-20.5-5.3-8.7-1.4-17.5-2-26.3-2.3-1.6-.4-3.2-.7-4.9-1.1-5.7-1.3-11.5-2.8-16.8-5.2-.4-.2-.7-.4-1-.6-.1-.1-.2-.2-.3-.2.7-1.9 1.6-3.8 2.4-5.7 1.7-3.8 2.9-7.6 3.8-11.6 1.7-8.1-.4-17.4-6.3-23.9-11.8-12.9-30.8-11.3-46.8-8.9-26.8 4-53.5 14.2-72.4 32.5-8.1 7.8-15.1 16.5-20.1 26.3-49.9 7.4-98.7 22.2-143.3 43.7-6.7 3.2-13.3 6.6-19.8 10.2-9.3 5-17.5 10.1-22.3 19.4-9.4 18.1 7.9 37.2 22.3 48.1 12.5 9.4 27.7 16.2 42.2 22.4 14.7 6.3 29.9 11.7 45.3 16.2 63.5 18.7 130.6 25.3 196.6 29.2 34.1 2 68.4 2.6 102.5.1 16.3-1.2 32.6-3 48.7-5.9 14.5-2.5 29.5-5.4 43.2-10.7 5.3 2.9 11.5 3.8 17.2 1.4 6.1-2.5 9.3-7.5 10.4-13.4.2-.9.3-1.7.5-2.6.2-1.2.3-2.5.1-3.7 1.3-2.2 2.2-4.4 2.5-7zm-208.6-158c-.1 0-.1 0 0 0-.1 0-.1 0 0 0z"/><path class="st9" d="M1693.2 333.9c.4 0 .7.1 1.1.1 2.2.3 4.4.1 6.4-.7 2.1-.4 4-1.4 5.6-2.8 1.7-1.3 3-2.9 3.9-4.9 1.2-1.8 1.9-3.9 2.1-6.1 0-1.5-.1-2.9-.1-4.4-.5-2.8-1.6-5.4-3.4-7.6-1-1-2-1.9-3-2.9-2.4-1.7-5-2.8-8-3.1-.4 0-.7-.1-1.1-.1-2.2-.2-4.4-.1-6.4.7-2.1.4-4 1.4-5.6 2.8-1.7 1.3-3 2.9-3.9 4.9-1.2 1.8-1.9 3.9-2.1 6.1 0 1.5.1 2.9.1 4.4.5 2.8 1.6 5.4 3.4 7.6 1 1 2 1.9 3 2.9 2.4 1.7 5 2.8 8 3.1zM1788.4 286.8s.3.4.9 1.1c.6.8 1.5 1.8 2.5 3.3.5.7 1.1 1.6 1.7 2.5.6.9 1.2 1.9 1.9 3 1.3 2.2 2.6 4.7 3.9 7.6 1.3 2.9 2.5 6 3.6 9.5 1.1 3.4 2 7.1 2.7 11 .7 3.9 1.1 8 1.3 12.1 0 .5.1 1 0 1.6v3l-.1 1.6c-.1 2.1-.2 4.2-.4 6.3-.4 4.2-1.1 8.4-2.2 12.4-1 4-2.2 7.9-3.6 11.6-1.4 3.7-3 7.1-4.7 10.3-.8 1.6-1.7 3.1-2.6 4.6-.9 1.4-1.8 2.8-2.6 4.1-1.8 2.6-3.6 4.9-5.3 6.8-1.7 1.9-3.4 3.4-4.8 4.5s-2.7 1.9-3.5 2.4c-.9.5-1.3.7-1.3.7s.4-.3 1.1-1c.7-.6 1.7-1.6 2.9-2.9 1.2-1.3 2.5-3 3.9-5s2.8-4.4 4.2-7.1c1.4-2.7 2.8-5.7 4.2-8.8 1.4-3.2 2.7-6.6 3.8-10.2 1.2-3.6 2.2-7.3 3-11.2.8-3.8 1.5-7.8 1.9-11.8.2-2 .4-4 .5-5.9l.1-1.5v-3-1.4c0-3.9-.3-7.8-.7-11.5-.5-3.7-1.1-7.3-1.8-10.7-.8-3.4-1.7-6.5-2.6-9.4-1-2.9-1.9-5.5-2.9-7.8-.2-.6-.5-1.1-.7-1.7-.2-.5-.5-1-.7-1.5-.4-1-.8-1.9-1.2-2.7-.4-.8-.7-1.5-1-2.2-.3-.6-.6-1.1-.8-1.6-.4-.6-.6-1.1-.6-1.1zM1594 328.3s.1-.1.4-.2c.2-.1.6-.3 1-.4.9-.4 2.3-.8 4.2-1.1 1.9-.2 4.2-.3 6.8.1 1.3.2 2.7.5 4.1.9.7.2 1.4.4 2.2.7.4.1.7.3 1.1.4.4.2.8.3 1.1.5 3 1.3 6.1 3 9.2 4.8 1.5.9 3.1 1.9 4.7 2.9s3.3 1.9 4.9 2.9c1.7 1 3.4 1.9 5.1 2.9 1.7 1 3.5 1.8 5.3 2.8 1.8.9 3.7 1.8 5.5 2.7 1.9.9 3.8 1.7 5.6 2.5 1.9.8 3.8 1.5 5.7 2.3l5.7 2.1 5.7 1.8c1.9.5 3.8 1.1 5.7 1.6 1.9.4 3.7.9 5.5 1.3 1.8.4 3.6.7 5.3 1 1.7.4 3.5.5 5.1.8 1.6.3 3.3.4 4.8.6 1.5.2 3 .3 4.4.4 1.4.1 2.8.2 4 .2 2.5 0 4.8 0 6.6.1 3.6-.2 5.8-.2 5.8-.2s-2 .5-5.7 1.3c-1.8.3-4 .7-6.6 1-2.6.2-5.5.5-8.7.4-3.2.1-6.7-.1-10.3-.4-1.8-.2-3.7-.4-5.6-.7-1.9-.3-3.8-.7-5.8-1-2-.4-3.9-.9-5.9-1.4-2-.6-4-1.1-6-1.7-2-.7-4-1.3-6-2.1s-4-1.5-5.9-2.4c-1.9-.9-3.9-1.7-5.8-2.7-1.9-1-3.8-1.9-5.6-2.9-3.7-2-7.3-4.1-10.6-6.3-1.6-1.1-3.2-2.1-4.8-3.3-1.5-1.1-3-2.2-4.5-3.2-2.9-2.1-5.6-4-8.3-5.5-.3-.2-.7-.4-1-.5-.3-.2-.7-.3-1-.5-.6-.3-1.3-.6-1.9-.9-1.3-.5-2.5-1-3.7-1.3-2.4-.7-4.5-1-6.3-1-1.8 0-3.2.1-4.2.3-.8.2-1.3.4-1.3.4zM1713.4 302.9s-.5-.1-1.3-.5c-.4-.2-.9-.4-1.4-.6-.5-.2-1.1-.5-1.7-.7-1.2-.5-2.6-1.1-4.1-1.8-.8-.3-1.5-.6-2.3-.9-.8-.3-1.6-.6-2.3-.9-1.6-.6-3.2-1.2-4.7-1.8-1.5-.6-3-1.1-4.2-1.5-.6-.2-1.2-.5-1.8-.6-.5-.2-1-.4-1.4-.5-.8-.3-1.3-.5-1.3-.5s.4-.2 1.3-.6c.4-.2.9-.3 1.5-.5s1.2-.3 2-.4c.7-.1 1.5-.2 2.4-.2.8 0 1.7 0 2.7.1.9.1 1.9.3 2.8.5.9.2 1.9.6 2.8.9.9.4 1.8.8 2.7 1.3.9.4 1.6 1 2.4 1.5.7.6 1.4 1.1 2 1.7.6.6 1.2 1.2 1.6 1.7.5.6.9 1.1 1.2 1.6.3.5.6 1 .8 1.4.2.8.3 1.3.3 1.3z"/><path class="st9" d="M1797.8 288.6s.5.3 1.4.9c.9.6 2.3 1.4 3.9 2.7.8.6 1.8 1.3 2.7 2 1 .7 2 1.6 3.1 2.5 1.1.9 2.3 1.9 3.5 3 1.2 1.1 2.4 2.2 3.7 3.5 1.3 1.2 2.5 2.6 3.8 4 1.3 1.4 2.6 2.9 3.8 4.6 1.3 1.6 2.5 3.3 3.7 5.1 1.2 1.8 2.4 3.6 3.5 5.6 2.2 3.9 4.2 8.1 5.8 12.6.4 1.1.7 2.3 1.1 3.4.2.6.4 1.2.5 1.7.2.6.3 1.2.4 1.8.6 2.4 1 4.8 1.2 7.3.1 1.2.1 2.5.1 3.8v.9l-.1.9c0 .3 0 .6-.1.9l-.1 1c-.3 2.6-.9 4.9-1.7 7.3-.8 2.3-1.8 4.5-2.9 6.6-1.2 2.1-2.4 4.1-3.8 5.9-2.8 3.7-5.9 6.8-9.1 9.4l-1.2.9-1.2.9c-.8.6-1.6 1.2-2.4 1.7-1.6 1.1-3.2 2.1-4.7 3-3 1.8-5.9 3.3-8.5 4.5-2.6 1.2-4.9 2.2-6.7 3-1.9.8-3.4 1.4-4.4 1.8-1 .4-1.6.6-1.6.6s2-1.3 5.5-3.4c3.5-2.2 8.5-5.2 14-9.2 2.8-2 5.6-4.3 8.5-7 2.8-2.6 5.5-5.7 7.8-9.2 2.3-3.4 4.3-7.2 5.6-11.3.3-1 .6-2.1.8-3.1.2-1 .4-2.1.5-3.1l.1-.8c0-.3 0-.6.1-.9v-1.3l.2-.1s.2-.1.2 0l-.2-.2c0-1.1-.1-2.1-.2-3.2-.3-4.3-1.5-8.7-2.8-12.9-1.4-4.2-3.1-8.2-5-12-.9-1.9-2-3.7-3-5.5-1.1-1.7-2.1-3.5-3.3-5.1-2.2-3.3-4.5-6.2-6.6-8.9-.6-.7-1.1-1.3-1.6-1.9-.5-.6-1.1-1.2-1.6-1.8-1-1.2-2.1-2.3-3-3.3-1-1-1.9-2-2.8-2.8-.8-.9-1.7-1.7-2.4-2.4-1.5-1.4-2.6-2.5-3.4-3.3l-1.1-1.1zM1787.4 249.9s1-1.4 3-3.9c.5-.6 1-1.3 1.6-2 .6-.7 1.3-1.4 2-2.2.7-.8 1.5-1.7 2.4-2.5.9-.9 1.8-1.7 2.8-2.6 1-.9 2-1.9 3.1-2.8 1.1-.9 2.3-1.9 3.5-2.8l1.8-1.5c.6-.5 1.3-.9 1.9-1.4 1.3-.9 2.7-1.9 4.1-2.8 2.9-1.8 5.8-3.6 8.9-5.2 3.1-1.7 6.4-3.1 9.7-4.6 3.4-1.2 6.7-2.6 10.1-3.5 3.4-1.1 6.8-1.8 10-2.6 1.6-.3 3.3-.6 4.9-.8.8-.1 1.6-.3 2.4-.4.8-.1 1.6-.2 2.3-.3 1.5-.1 3-.3 4.5-.4 1.4-.1 2.8-.1 4.2-.1 1.3 0 2.6-.1 3.8-.1 1.2.1 2.4.1 3.5.2s2.1.1 3 .2c.9.1 1.8.2 2.6.3 3.1.4 4.8.7 4.8.7s-1.8.2-4.8.4c-.8.1-1.6.1-2.5.2-.9.1-1.9.2-3 .4-1.1.1-2.2.2-3.4.4-1.2.2-2.4.4-3.7.6-1.3.2-2.6.4-4 .7-1.4.3-2.8.6-4.3.9-.7.2-1.5.3-2.2.4-.7.2-1.5.4-2.2.6-1.5.4-3.1.7-4.6 1.1-1.6.4-3.1.9-4.7 1.4-1.6.4-3.2 1-4.8 1.5-3.2 1-6.4 2.3-9.6 3.5-3.1 1.4-6.3 2.7-9.3 4.2-3.1 1.4-6 3.1-8.8 4.6-1.4.8-2.7 1.7-4.1 2.4-.7.4-1.3.8-2 1.2-.6.4-1.3.8-1.9 1.2-1.2.8-2.5 1.6-3.6 2.4-1.2.8-2.2 1.6-3.3 2.3-1.1.8-2.1 1.5-3 2.2l-2.7 2.1c-.8.7-1.6 1.3-2.4 1.8-.7.6-1.4 1.1-2 1.6-2.6 1.9-4 3-4 3zM1809.1 249.1s.1-.2.4-.6c.3-.4.7-.9 1.2-1.5.6-.7 1.3-1.4 2.1-2.3.9-.8 1.9-1.7 3-2.6 1.2-.9 2.5-1.8 3.9-2.7 1.4-.9 3-1.8 4.6-2.6 1.6-.8 3.4-1.6 5.2-2.3 1.8-.7 3.6-1.3 5.6-1.9 1.8-.5 3.8-1 5.6-1.4 1.9-.4 3.7-.7 5.5-.9 3.6-.5 7-.7 9.8-.8 5.8-.1 9.6.3 9.6.3s-.9.4-2.5.9-3.9 1.2-6.7 2c-2.8.8-6 1.6-9.4 2.4-1.7.4-3.4.9-5.2 1.3-1.8.5-3.5.9-5.4 1.5-1.7.5-3.5 1-5.2 1.6-1.7.6-3.4 1.1-5 1.7-3.2 1.2-6.2 2.4-8.8 3.6-1.3.6-2.4 1.2-3.5 1.7-1 .5-1.9 1-2.7 1.4-.7.4-1.3.7-1.7.9-.2.2-.4.3-.4.3zM1861.6 244.6s.4-.4 1.2-.9c.8-.5 1.9-1.2 3.3-1.9s3.1-1.4 4.9-2c.9-.3 1.9-.6 2.9-.8 1-.3 2-.4 3-.6 1-.2 2-.3 3-.4 1-.1 2-.2 3-.2 1.9-.1 3.7 0 5.3.2 1.6.2 2.9.4 3.8.7.9.2 1.4.4 1.4.4s-.5.3-1.3.7c-.8.4-2.1.9-3.5 1.4-1.5.5-3.1 1-5 1.5-.9.2-1.8.5-2.8.7-1 .2-1.9.4-2.9.6-1 .2-2 .3-2.9.5-1 .1-1.9.3-2.9.3-1.9.2-3.6.3-5.2.3-1.5 0-2.8 0-3.8-.1-1-.3-1.5-.4-1.5-.4zM1862.2 280.2s.1-.2.4-.5c.3-.3.9-.6 1.6-.8.8-.2 1.6-.3 2.6-.4 1-.1 2.2-.2 3.5-.1 1.3.1 2.8.3 4.4 1 .8.3 1.6.8 2.3 1.4.4.3.7.6 1.1 1.1.2.2.4.5.6.9.1.2.2.4.2.6 0 .1.1.2.1.3V284c.1 1-.1 1.7-.3 2.2l-.2.6c-.1.2-.2.5-.3.7-.4.9-.9 1.7-1.5 2.5s-1.3 1.5-2.1 2.2c-.2.2-.4.3-.6.5-.2.1-.3.2-.3.3-.1 0 0 0 .1-.1s.3-.5.3-.8c0 0 0 .1 0 0v-.2-.3c0-.2-.1-.3-.1-.4-.1-.2-.2-.2-.2-.2s.1.1.4.3c.7.4 1.4.9 2.2 1.4.7.5 1.5 1.2 2.1 1.9.3.4.6.7.9 1.2.3.4.5.9.7 1.4.4 1 .6 2 .6 3.1 0 .5-.1 1.1-.3 1.6V302.2l-.1.3c-.1.3-.3.6-.4.8-1.1 1.7-2.7 2.6-4 3-.7.2-1.4.4-2 .4-.6.1-1.2.1-1.7.1-1 0-1.9-.1-2.6-.2-.7-.1-1.3-.1-1.7-.2-.4 0-.6-.1-.6-.1s.7-.4 2.1-.8c.7-.2 1.5-.5 2.4-.8.5-.2.9-.3 1.4-.5.4-.2.9-.4 1.3-.7.8-.6 1.5-1.3 1.7-2.1.2-.7.1-1.4-.4-2.2-.1-.2-.3-.4-.4-.6-.1-.1-.3-.4-.5-.6-.4-.4-.9-.7-1.5-1.1-.6-.4-1.2-.7-1.9-1.1-.4-.2-.9-.5-1.5-1.1-.3-.3-.6-.6-.9-1.2-.1-.3-.3-.6-.3-1 0-.2-.1-.3-.1-.6v-.5c0-.7.4-1.4.7-1.9.3-.5.7-.8.9-1l1-.7c.5-.4.9-.8 1.3-1.2.4-.5.7-.9 1-1.5l.2-.3.2-.4c.1-.2.1-.3.1 0l.1.2v-.1c0-.1-.2-.3-.4-.5-.3-.4-.7-.8-1.2-1.1-.9-.6-1.9-1.1-3-1.5-1.1-.4-2.1-.7-3-.9-.9-.2-1.8-.5-2.5-.6-.6-.1-1.2-.1-1.5 0-.3.1-.4.3-.4.3zM1880.2 283.5s.1-.1.3-.2c.2-.1.4-.3.8-.5.7-.3 1.7-.7 3.1-.8 1.3-.1 3 .1 4.6.7.8.3 1.6.8 2.4 1.4.4.3.9.7 1.3 1.3.2.3.4.6.6 1l.1.3.1.1.1.2v.4c.3 1.9-.2 3.1-.8 4.1-.3.5-.6.9-1 1.3l-.6.6c-.1.1-.3.2-.5.3-.8.6-1.5.9-2.2 1.2-.7.3-1.4.5-2 .6-1.3.3-2.3.3-3.1.3-.7 0-1.2-.1-1.2-.1s.3-.4.8-.9c.5-.6 1.2-1.3 2-2.1.4-.4.8-.8 1.2-1.3.4-.4.8-.9 1.1-1.3.1-.1.2-.3.3-.4 0 0 0-.1.1-.1l.1-.2.3-.6c.1-.2.1-.3.1-.4 0 0 0-.1 0 0v.2-.2h-.1c0-.1-.1.2-.1.1h.2c0-.1-.1-.2-.3-.4-.4-.4-.8-.8-1.3-1.2-.9-.7-1.9-1.4-2.8-1.9-.5-.3-.9-.5-1.3-.7-.4-.2-.8-.4-1.1-.5-.3-.1-.6-.3-.8-.3-.3.1-.4 0-.4 0zM1897.4 378l.7-.7c.5-.4 1.1-.9 2-1.4.4-.3.9-.5 1.3-.7.2-.1.5-.2.7-.3.2-.1.6-.2.6-.3.1-.1-.1-.1-.4.1l-.2.2-.2.2c-.1.1-.1.3-.1.4 0 .2-.1.3 0 .4 0 0 .1.1.1.2-.1-.1 0 0 0 0s-.3-.3-.8-.6-.9-.7-1.4-1.1c-.9-.7-1.6-1.5-2.2-2.3-.6-.8-1.1-1.5-1.4-2-.3-.5-.4-.9-.4-.9s.4-.1 1 0c.6 0 1.5 0 2.4.2 1 .2 2 .4 3.1.8.5.2 1.1.4 1.6.7.5.3 1.3.6 2.1 1.4l.3.3c.1.1.3.4.3.4.2.3.4.6.5 1 .2.7.3 1.4.2 2.2-.1.4-.2.8-.4 1.2-.1.2-.2.4-.4.6-.1.1-.2.2-.3.4l-.1.1c-.8.7-1.5.8-1.9.9-.5.1-.7 0-1 0h-.8c-.5 0-1-.1-1.5-.2-1-.2-1.8-.4-2.3-.6-.7-.4-1.1-.6-1.1-.6zM1872.6 366.5s.1 0 .3-.1c.2 0 .5-.2.8-.2.7-.2 1.6-.5 2.6-.7 1-.3 2.2-.6 3.4-.9.3-.1.6-.2.9-.2.3-.1.5-.2.8-.2.5-.2.8-.3 1.1-.6.1-.1.4-.3.5-.4 0-.1.1-.1.1-.1v.4h-.1s-.1-.3-.1-.2l.1-.1.1-.3c0-.1 0 0 .1 0h.1v-.1-.2c0-.1-.1-.3-.2-.5-.2-.4-.6-.9-.9-1.3-.3-.4-.7-.9-.9-1.3-.3-.4-.5-.8-.6-1.2-.2-.3-.2-.6-.3-.8 0-.2-.1-.3-.1-.3s.1 0 .3.1c.2.1.5.1.8.2.7.2 1.6.3 2.7.7.6.2 1.2.4 1.9.9.4.2.7.5 1.1.9.2.2.4.4.5.7l.2.4c.1.2.2.4.2.5.1.2.1.4.2.5l.1.3v.9c0 .7-.1 1.4-.4 2-.2.6-.6 1.1-.9 1.6-.4.5-.8.8-1.4 1.3-.9.6-2 1-2.9 1.2-.5.1-.9.1-1.3.2h-1.2c-1.5-.1-2.9-.4-4.1-.8-1.1-.4-2-.9-2.6-1.3-.6-.7-.9-1-.9-1zM1714.6 352.9s.1 0 .3.1c.2.1.5.2.8.4.7.4 1.7 1 2.7 1.8 1 .9 2.1 2 3.1 3.3.5.7 1 1.4 1.4 2.1.5.8.9 1.5 1.2 2.3.3.8.7 1.6 1 2.5.3.9.5 1.8.5 2.8.1 1 0 2-.2 2.9V371.4l-.1.3c-.1.3-.2.5-.3.7-.2.4-.4.8-.7 1.1-.5.6-1.1 1.1-1.7 1.4-.6.3-1.1.5-1.6.5-.4.1-.8 0-1 0-.2 0-.3-.1-.3-.1s.1-.1.3-.2c.2-.1.4-.4.6-.6.4-.6.8-1.4.9-2.4v-.7-.3l-.3-.2-.3-.1c0-.1.2.1.2.1h.2c-.1-.5-.2-1-.4-1.6-.2-.6-.5-1.2-.7-1.8l-.9-2.1c-.3-.7-.6-1.4-.9-2.2l-.9-2.1c-.6-1.4-1.1-2.7-1.5-3.9-.4-1.2-.8-2.2-1-3-.3-.9-.4-1.3-.4-1.3z"/><ellipse transform="rotate(-84.025 1694.573 317.778)" class="st8" cx="1694.7" cy="317.8" rx="10.9" ry="10.9"/></g></g></svg>