<svg version="1.1" id="Layer_1" xmlns="http://www.w3.org/2000/svg" xmlns:xlink="http://www.w3.org/1999/xlink" x="0" y="0" width="1920" height="800.4" viewBox="0 0 1920 800.4" xml:space="preserve"><style type="text/css">.st0{clip-path:url(#SVGID_2_);fill:#f2ce7c}.st1{fill:#e2b060}.st1,.st2{clip-path:url(#SVGID_2_)}.st3{fill:#edc574}.st4{fill:#e8ba69}.st5{clip-path:url(#SVGID_2_);fill:#f4dba8}.st10,.st6,.st7,.st8,.st9{clip-path:url(#SVGID_2_);fill:#5eac7e}.st10,.st7,.st8,.st9{fill:#6ab78a}.st10,.st8,.st9{fill:#7dbc96}.st10,.st9{fill:#b0202a}.st10{fill:none}</style><defs><path id="SVGID_1_" d="M-.6 0h1924v800.4H-.6z"/></defs><clipPath id="SVGID_2_"><use xlink:href="#SVGID_1_" overflow="visible"/></clipPath><path id="XMLID_7_" class="st0" d="M-2 127.5h1925.4V400H-2z"/><path id="XMLID_5_" class="st1" d="M-6.4 0h1927.7v127.5H-6.4z"/><path class="st2 st3" d="M-133.4 215.8c219.1 74.8 477.7-3.5 705.1 15.3 76 6.3 150.9 25 226.6 34.9 256.7 33.4 513.6-36.3 771.5-39.6 195.1-2.5 392.3 32.9 584.3-4.6-58.2-44.1-128.4-60.8-197.2-71-226.5-33.5-455.8-6.3-683.6-20.5-178-10.9-355.3-47.3-533.4-42.7-127.2 3.3-253.1 27.5-380.1 36.7C134.6 140.8-92.8 110-317 138.4c66 55.4 148.7 83.4 229.7 77.7l-46.1-.3z"/><path class="st2 st4" d="M2013.9 140.9c-240.2 48-527.2-7.7-777.7 2.4-83.7 3.4-165.9 15.2-249.3 21-282.5 19.6-567.5-30.2-852.1-35.3-215.3-3.9-432.2 17.8-644.8-9.6 63.3-29.1 140.4-39.6 216.1-45.7 249.2-20.1 502.8.9 753.9-6.1 196.2-5.5 391.1-28 587.7-22.9 140.4 3.7 279.9 21.4 420.1 29 248.8 13.6 499.1-4.6 747.1 17-71.6 36.6-162.4 54.6-251.8 49.8l50.8.4z"/><circle class="st5" cx="1138.6" cy="449.5" r="157"/><path id="XMLID_1_" class="st6" d="M-1.4 402h1924.8v400H-1.4z"/><ellipse class="st7" cx="337" cy="630.6" rx="997.3" ry="150.6"/><ellipse class="st7" cx="2115.8" cy="788.1" rx="930.7" ry="140.5"/><ellipse class="st7" cx="2001.8" cy="613.4" rx="475.6" ry="71.8"/><ellipse class="st8" cx="373.9" cy="613.8" rx="660.7" ry="99.8"/><path class="st9" d="M447.2 686.8s-.1 0 0 0h.1-.1z"/><path class="st6" d="M2366 293c-28.3-13.7-68.3-23.4-111.9-25.9-32.3-1.8-69.6 2-85.4 14.9-9.1 7.5-5.8 17.1 7.8 22.9-11.5-1.2-23.5-1.6-35.4-1-32.3 1.6-60.2 10-74.1 22.2-4.9 4.3-9.4 9.8-9.2 14.9-12.9-4.2-27.4-7.5-43-9.7-42.9-6-92.3-3-123.7 11.2-16 7.2-26.7 16.6-29.3 26.3-15.6-1.9-31.9-3.7-48.7-5.1-45.8-3.9-99.9-5-125 1-14.5 3.5-11.7 9.3 6.7 13.9-16.2-1.7-33.3-3-50.5-3.7-46.6-1.9-88.1.4-110.3 6.2-7.9 2.1-15.4 4.8-16 7.7-17.6-3.6-37.8-6.7-59.6-9.4-60.2-7.3-131.3-9.5-179-4.1-33.2 3.7-52.8 10.1-48.4 19.1h-149.9c-21-5-47.5-10.3-82.7-14.1-50.1-5.4-116.5-8.2-190-7.7-42 .3-84.4 1.4-125.4 3.3-14.8-4.8-31.5-9.1-49.8-12.5-29.7-5.6-66.9-8.4-88.2-2.6-9.9 2.7-12.9 7.4-8.4 12-2.1.3-4.2.7-6.3 1-7.1-1.3-14.6-2.4-22.2-3.3-31.4-3.5-62-2.1-81.1 3.5-6.8 2-13.8 4.8-16 7.9-8.4-3.6-18.4-7.1-29.3-10.1-.3-.6-.6-1.1-1-1.6-2.4-3-8.4-5.6-14-7.7-34.8-13.1-85-10.5-125.8-5.4-4.2-3.7-13.4-5.8-23.2-6.3-12.4-.6-24.1 1.7-34.8 3.9-4.6-16.2-14-32.7-35.1-47-19.7-13.3-49.7-23.4-85.8-28.7-26.3-3.9-54.2-5.2-81.6-4.2-16.3 37.3-31.6 74.5-44.4 112.1 9.9 1.3 19.7 2.6 29.6 3.8 9 1.1 17 2.2 27 3.3v24.2h2211v-9.1c16-.6 31.3-1 46.7-1.6 15-.5 30.2-1.2 45.1-2.2 14.4-.9 30.6-1.8 44-4.4 18.6-3.5 20.5-12 21-19.4.5-6.7.2-15.7 14.1-19.4-6.1-22.5-9.6-45.6-8.5-69.1z"/><path class="st10" d="M-.6 0h1919.2v800.4H-.6z"/></svg>