<svg version="1.1" id="Layer_1" xmlns="http://www.w3.org/2000/svg" xmlns:xlink="http://www.w3.org/1999/xlink" x="0" y="0" width="1920" height="1110.2" viewBox="0 0 1920 1110.2" xml:space="preserve"><style type="text/css">.st0,.st1{clip-path:url(#SVGID_2_);fill:#afe8c5}.st1{fill:#bbefd0}.st2{fill:#5eac7e}.st2,.st3{clip-path:url(#SVGID_2_)}.st4{fill:#93d8aa}.st5{fill:#bbefd0}.st6{fill:#aceac4}.st7{fill:#a1e2b8}.st8,.st9{clip-path:url(#SVGID_2_);fill:none}.st9{fill:#6ab78a}</style><defs><path id="SVGID_1_" d="M.5 0h1919v1110.2H.5z"/></defs><clipPath id="SVGID_2_"><use xlink:href="#SVGID_1_" overflow="visible"/></clipPath><path id="XMLID_11_" class="st0" d="M-.5 376.3h1920v733.9H-.5z"/><ellipse class="st1" cx="610.5" cy="624.2" rx="907.9" ry="169.8"/><ellipse class="st1" cx="2182.7" cy="862.5" rx="930.7" ry="174.1"/><ellipse class="st1" cx="2167.7" cy="624.5" rx="475.6" ry="88.9"/><ellipse class="st1" cx="216.7" cy="986.1" rx="521.6" ry="97.5"/><path class="st2" d="M1974.2 466.9c-2.8-30.3-3.5-60.8-2.8-91.3H-48.1c1.6 15 2.9 30.2 4 45.2 230.8-15.4 496.1-24.2 778.4-24.2 498.5-.1 944.2 27.3 1239.9 70.3z"/><path class="st3 st4" d="M1817.4 1076.8c50.3 1.6 100.8-.5 150.8-6.3-25.8-17.4-59.6-16-90.6-13.4 34.8-12.1 68.2-28.4 99.1-48.4 12.1-7.9 24.8-17.8 27.5-32 .3-1.7.5-3.5-.2-5.1-.8-1.7-2.4-2.9-4-3.9-13.5-7.9-30.5-6.1-45.9-3.3-32 5.9-63.6 15.6-92.8 29.8.8-2.8 1.5-5.6 2.1-8.4 3.9-19 1.8-39.5-7.9-56.3-5.7-9.9-13.9-18.2-23.5-24.7 4.4-8.4 6.7-17.8 6.5-27.3-.1-4.7-1-9.8-4.5-12.9-5.7-5-14.8-2.2-20.9 2.3-7.8 5.8-13.7 14.1-16.9 23.2-15.6-3.3-31.9-3.4-47.8-2-9.2.8-18.5 2.3-27.6 4.6-.2-7.7-2.3-15.3-6.3-21.9-3.5-5.8-9.1-11.1-15.9-11.7-5.5-.5-11 2.4-14.6 6.6-3.6 4.2-5.6 9.6-6.6 15-1.9 10-.8 20.6 3.1 30-7.7 5.6-14.4 12.3-19.8 20.5-11.3 17.2-14.7 38.6-13.5 59.1.5 9.2 2 18.3 3.9 27.3-30.1-33.5-77.2-51.8-122-45.4-7.5 1.1-15.6 3.3-19.7 9.6-4.4 6.7-2.7 15.6 0 23.1 13.3 36.9 49.7 64.3 88.8 66.9.6 2-.5 4.4-2.3 5.3-37.9 0-75.8 5.7-112 16.8-.4 3.1 3.6 4.6 6.7 5 59.8 7.2 117.9-22.1 178-25.9 7.3-.5 14.6-.5 21.9-1l126.9 4.8z"/><path class="st3 st5" d="M1834.4 1018.7c-2.4-18.3-17.4-33.2-34.6-39.7-17.3-6.5-36.4-5.7-54.6-2.5-14.7 2.6-29.6 7-41 16.6-12.4 10.5-19.6 26.6-20.2 42.9-.5 11.8 1.8 19.7 8.8 30.1 3 2.9 4.4 3.9 7.2 3.5 29.8 4.1 60 5.4 90.1 4 9.4.6 18.4 2.6 29.1-.2 13-9.9 8.9-17.9 12-28.3 2.6-8.5 4.4-17.5 3.2-26.4z"/><path class="st1" d="M1688 945.2s2.4.6 6.6 1.5c1 .2 2.2.5 3.5.8 1.3.3 2.6.6 4.1.9 1.5.3 3 .6 4.6 1 1.6.3 3.4.7 5.1 1 3.6.7 7.5 1.4 11.6 2 4.1.7 8.5 1.2 13 1.7 2.3.2 4.6.5 6.9.6 1.2.1 2.3.2 3.5.3 1.2.1 2.4.2 3.6.2 4.8.2 9.6.3 14.4.3 1.2 0 2.4-.1 3.6-.1 1.2 0 2.4-.1 3.6-.1 2.4-.1 4.8-.3 7.2-.5 4.7-.4 9.4-1 13.9-1.7 4.5-.8 8.8-1.6 12.8-2.5 2-.4 4-1 5.9-1.5 1-.2 1.9-.5 2.8-.8.9-.3 1.8-.5 2.7-.8 1.7-.6 3.4-1.1 5-1.6 1.6-.6 3-1.1 4.4-1.6 1.4-.5 2.7-1.1 3.9-1.5 1.2-.5 2.3-1 3.3-1.4 2-.8 3.5-1.6 4.5-2 1-.5 1.6-.7 1.6-.7s-.5.3-1.5 1c-.5.3-1.1.7-1.8 1.1-.4.2-.7.5-1.1.7-.4.2-.9.5-1.3.8-.9.5-2 1.1-3.1 1.7-1.1.6-2.4 1.2-3.7 1.9-1.4.6-2.8 1.3-4.3 2-.8.4-1.6.7-2.4 1-.8.3-1.7.7-2.5 1-.9.3-1.8.7-2.7 1-.9.3-1.8.7-2.8 1-1.9.6-3.9 1.3-5.9 1.9-4.1 1.2-8.4 2.3-13 3.2-1.1.2-2.3.4-3.4.6-.6.1-1.2.2-1.7.3l-1.8.3c-2.4.4-4.8.6-7.2.9-2.4.2-4.9.5-7.3.6-1.2.1-2.5.2-3.7.2-1.2 0-2.5.1-3.7.1-4.9 0-9.9-.1-14.7-.4-2.4-.2-4.8-.4-7.2-.7-1.2-.1-2.4-.2-3.5-.4-1.2-.2-2.3-.3-3.5-.5-4.6-.7-9-1.4-13.1-2.3-2.1-.4-4.1-.9-6-1.3-1-.2-1.9-.5-2.8-.7-.9-.2-1.8-.5-2.7-.7-1.8-.5-3.5-1-5.1-1.4-1.6-.5-3.1-.9-4.6-1.4-1.4-.5-2.8-.9-4-1.3-1.2-.4-2.3-.8-3.4-1.2-1-.3-1.9-.7-2.7-1-.8-.3-1.4-.5-2-.7-1.3-.6-1.9-.8-1.9-.8zM1651.1 1073.3s-1.6-1.9-4.4-5.1c-.7-.8-1.5-1.7-2.3-2.7-.9-1-1.8-2-2.7-3.1-1-1.1-2-2.3-3.2-3.5-1.1-1.2-2.3-2.5-3.5-3.9-2.5-2.7-5.2-5.5-8.2-8.5-2.9-3-6.1-6-9.4-9.1-1.7-1.5-3.4-3.1-5.2-4.6-.9-.8-1.8-1.5-2.7-2.3-.9-.8-1.8-1.5-2.7-2.3-3.7-3-7.5-6-11.4-8.8l-3-2.1c-1-.7-2-1.4-3-2l-6-3.9c-4.1-2.5-8.1-4.8-12.2-6.9-4-2-8-4-11.8-5.6-1.9-.9-3.8-1.6-5.6-2.3-.9-.4-1.8-.7-2.7-1-.9-.3-1.8-.6-2.6-1-1.7-.6-3.4-1.1-5-1.6s-3.1-.9-4.5-1.3-2.8-.7-4-1.1c-1.2-.3-2.4-.6-3.4-.8-2.1-.5-3.7-.8-4.9-1-1.1-.2-1.7-.4-1.7-.4s.6 0 1.8.1c.6 0 1.3.1 2.1.2.4 0 .9 0 1.3.1.5.1 1 .1 1.5.2 1.1.1 2.3.2 3.5.4 1.3.2 2.7.4 4.1.7 1.5.3 3 .6 4.7.9.8.2 1.7.4 2.5.6.9.2 1.7.4 2.6.7.9.3 1.8.5 2.7.8.9.3 1.9.5 2.8.8 1.9.6 3.9 1.2 5.9 2 4 1.4 8.1 3.2 12.3 5.2 1 .5 2.1 1 3.2 1.5.5.3 1.1.5 1.6.8.5.3 1 .6 1.6.8 2.1 1.1 4.2 2.3 6.3 3.5 2.1 1.3 4.2 2.5 6.2 3.9 1 .7 2.1 1.4 3.1 2.1l3 2.1c4 2.9 7.9 6 11.6 9.1 1.8 1.6 3.7 3.2 5.4 4.8.9.8 1.8 1.6 2.6 2.4.8.8 1.7 1.6 2.5 2.4 3.3 3.3 6.4 6.5 9.2 9.7 1.4 1.6 2.7 3.1 4 4.6.7.8 1.3 1.5 1.9 2.3.6.7 1.2 1.5 1.8 2.2 1.1 1.5 2.2 2.8 3.3 4.2 1 1.3 2 2.6 2.8 3.8.9 1.2 1.7 2.3 2.4 3.4s1.4 2 2 2.9c.6.9 1.1 1.7 1.6 2.4s.8 1.3 1.2 1.8c.7 1 1 1.5 1 1.5zM1958.8 977.8s-2.2 1-6.1 2.8c-1 .4-2.1.9-3.2 1.5-1.2.6-2.4 1.1-3.8 1.7-1.3.6-2.8 1.3-4.3 2s-3.1 1.5-4.7 2.3c-3.3 1.6-6.8 3.4-10.5 5.4-3.7 2-7.5 4.2-11.4 6.5-1.9 1.2-3.9 2.4-5.9 3.7-1 .6-2 1.3-3 1.9-1 .7-2 1.3-3 2-3.9 2.7-7.9 5.5-11.7 8.5-.9.8-1.9 1.5-2.8 2.3-1 .8-1.9 1.5-2.8 2.3-1.8 1.5-3.6 3.1-5.4 4.7-3.5 3.2-6.9 6.5-10 9.7-3.1 3.3-6.1 6.5-8.7 9.8-1.4 1.6-2.6 3.2-3.8 4.7-.6.8-1.2 1.6-1.7 2.3-.6.8-1.1 1.5-1.6 2.2-1 1.5-2 2.9-3 4.3-.9 1.4-1.8 2.7-2.6 4-.8 1.3-1.5 2.5-2.1 3.6-.7 1.1-1.2 2.1-1.8 3.1-1.1 1.9-1.8 3.4-2.4 4.4l-.8 1.6s.2-.6.6-1.7c.2-.5.4-1.2.7-2 .2-.4.3-.8.5-1.3.2-.4.4-.9.6-1.4.4-1 .9-2.1 1.4-3.3.5-1.2 1.2-2.4 1.8-3.8.7-1.3 1.4-2.7 2.2-4.2.4-.7.8-1.5 1.3-2.2.4-.8.9-1.5 1.4-2.3l1.5-2.4c.5-.8 1-1.7 1.6-2.5 1.1-1.6 2.3-3.4 3.6-5.1 2.5-3.4 5.4-6.9 8.4-10.4.8-.9 1.6-1.7 2.4-2.6.4-.4.8-.9 1.2-1.3.4-.4.8-.9 1.2-1.3 1.6-1.7 3.4-3.4 5.2-5.1 1.8-1.6 3.6-3.3 5.5-4.9.9-.8 1.9-1.6 2.8-2.4 1-.8 1.9-1.5 2.9-2.3 3.9-3 7.9-5.9 12-8.6 2-1.3 4.1-2.6 6.1-3.8 1-.6 2-1.2 3.1-1.8 1-.6 2-1.2 3-1.7 4.1-2.2 8-4.3 11.8-6.1 1.9-.9 3.8-1.8 5.6-2.6l2.7-1.2c.9-.4 1.7-.7 2.6-1.1 1.7-.7 3.3-1.3 4.9-1.9 1.6-.6 3.1-1.1 4.5-1.7 1.4-.5 2.7-1 4-1.4 1.2-.4 2.4-.8 3.4-1.1 1-.3 1.9-.6 2.7-.9.8-.2 1.5-.4 2-.6 1.3-.1 1.9-.3 1.9-.3z"/><path class="st1" d="M1692.5 938.4s-.1.3-.3.7c-.2.4-.4 1-.7 1.7-.3.7-.6 1.5-1 2.3-.2.4-.4.9-.5 1.3-.2.4-.4.9-.5 1.3-.2.5-.3.9-.5 1.3-.1.4-.3.9-.4 1.3-.1.4-.2.9-.3 1.3l-.3 1.2c-.1.4-.1.7-.2 1-.1.3-.1.6-.1.8 0 .2-.1.4-.1.5v.2s0-.1-.1-.2c0-.1-.1-.3-.2-.5s-.2-.5-.3-.8c-.1-.3-.2-.7-.2-1.1-.1-.4-.1-.8-.1-1.3s0-.9.1-1.4c.1-.5.1-1 .3-1.5.1-.5.3-1 .5-1.5l.6-1.5c.2-.5.5-.9.8-1.3.5-.8 1.1-1.5 1.7-2.1.5-.6 1-1 1.4-1.3.2-.1.3-.2.4-.3v-.1zM1841.1 945.3l-.3-.6c-.2-.4-.4-.9-.6-1.6-.2-.6-.5-1.4-.8-2.2-.1-.4-.3-.8-.4-1.2-.2-.4-.3-.8-.5-1.2-.2-.4-.3-.8-.5-1.2-.2-.4-.3-.8-.5-1.1-.4-.7-.7-1.4-1-2-.2-.3-.3-.6-.5-.8-.1-.2-.3-.5-.4-.6-.1-.2-.2-.3-.2-.4-.1-.1-.1-.2-.1-.2s.1 0 .2.1c.1 0 .3.1.5.2s.4.2.7.4c.3.2.5.3.8.6.3.2.6.5.9.8.3.3.6.6.8 1 .3.4.5.8.8 1.2.2.4.4.9.6 1.3.2.5.3.9.5 1.4.1.5.2.9.3 1.4.1.9.2 1.7.1 2.4 0 .7-.1 1.3-.2 1.7 0 .2-.1.4-.1.5-.1 0-.1.1-.1.1z"/><ellipse transform="rotate(-6.609 1699.033 890.638)" class="st1" cx="1699" cy="890.6" rx="12.6" ry="21.7"/><ellipse transform="rotate(-68.353 1816.953 891.285)" class="st1" cx="1817.1" cy="891.3" rx="21.7" ry="12.6"/><path class="st3 st4" d="M1629 517.2c-24.6.6-49.2-1-73.6-4.8 12.7-10.1 29.2-9 44.3-7.2-16.9-7.4-33.1-17.2-48.1-29.2-5.9-4.7-12-10.6-13.2-19-.1-1-.2-2.1.1-3 .4-1 1.2-1.7 2-2.2 6.7-4.6 14.9-3.4 22.4-1.6 15.6 3.7 30.9 9.7 45.1 18.2-.4-1.6-.7-3.3-1-5-1.8-11.2-.6-23.3 4.2-33.1 2.9-5.8 6.9-10.6 11.6-14.3-2.1-5-3.2-10.6-3-16.1.1-2.8.5-5.8 2.3-7.6 2.8-2.9 7.2-1.2 10.2 1.5 3.8 3.5 6.6 8.4 8.1 13.8 7.6-1.8 15.6-1.8 23.4-.8 4.5.6 9 1.5 13.4 2.9.1-4.5 1.2-9 3.2-12.8 1.8-3.4 4.5-6.5 7.8-6.8 2.7-.2 5.3 1.5 7.1 4 1.7 2.5 2.7 5.7 3.1 8.9.9 5.9.2 12.1-1.7 17.6 3.7 3.3 7 7.4 9.5 12.2 5.4 10.2 7 22.8 6.2 34.9-.3 5.4-1.1 10.8-2 16.1 14.9-19.5 38-29.9 59.8-25.8 3.6.7 7.6 2 9.6 5.8 2.1 4 1.2 9.2-.1 13.6-6.7 21.6-24.6 37.5-43.7 38.7-.3 1.2.2 2.6 1.1 3.2 18.5.3 36.9 3.9 54.6 10.7.2 1.8-1.8 2.7-3.3 2.9-29.2 3.8-57.4-13.9-86.7-16.6-3.5-.3-7.1-.4-10.7-.7l-62 1.6z"/><path class="st3 st6" d="M1621.1 482.8c1.3-10.8 8.7-19.4 17.1-23.1s17.8-3.1 26.7-1.1c7.2 1.6 14.4 4.3 19.9 10.1 6 6.3 9.4 15.8 9.6 25.4.2 7-1 11.6-4.5 17.6-1.5 1.7-2.2 2.2-3.6 2-14.6 2.2-29.3 2.8-44 1.7-4.6.3-9 1.4-14.2-.3-6.3-5.9-4.2-10.6-5.7-16.7-1.1-5-1.9-10.3-1.3-15.6z"/><path class="st1" d="M1693 440.7l-3.2.8c-.5.1-1.1.3-1.7.4-.6.1-1.3.3-2 .5s-1.5.3-2.3.5c-.8.2-1.6.4-2.5.6-1.8.4-3.7.8-5.7 1.1-2 .4-4.2.6-6.4.9-1.1.1-2.2.2-3.4.3-.6 0-1.1.1-1.7.1-.6 0-1.2.1-1.7.1-2.3.1-4.7.1-7 .1-.6 0-1.2-.1-1.8-.1-.6 0-1.2-.1-1.8-.1-1.2-.1-2.3-.2-3.5-.3-2.3-.3-4.6-.6-6.8-1.1-2.2-.5-4.3-1-6.2-1.6-1-.3-1.9-.6-2.9-.9-.5-.1-.9-.3-1.4-.5-.4-.2-.9-.3-1.3-.5-.8-.3-1.6-.7-2.4-1-.8-.3-1.5-.7-2.2-1-.7-.3-1.3-.7-1.9-.9-.6-.3-1.1-.6-1.6-.8-1-.5-1.7-.9-2.2-1.2-.5-.3-.8-.4-.8-.4s.2.2.7.6c.2.2.5.4.9.7.2.1.4.3.6.4.2.1.4.3.6.5.5.3 1 .7 1.5 1.1.6.4 1.2.7 1.8 1.2l2.1 1.2 1.2.6 1.2.6c.4.2.9.4 1.3.6.4.2.9.4 1.3.6.9.4 1.9.8 2.9 1.1 2 .8 4.1 1.4 6.3 2 .6.1 1.1.3 1.7.4.3.1.6.1.9.2.3.1.6.1.9.2 1.1.2 2.3.4 3.5.6 1.2.1 2.4.3 3.6.4.6 0 1.2.1 1.8.1.6 0 1.2.1 1.8.1 2.4.1 4.8 0 7.2-.1 1.2-.1 2.4-.2 3.5-.3.6-.1 1.2-.1 1.7-.2.6-.1 1.1-.2 1.7-.3 2.2-.4 4.4-.8 6.4-1.3 1-.2 2-.5 2.9-.7.5-.1.9-.3 1.4-.4.5-.1.9-.3 1.3-.4.9-.3 1.7-.5 2.5-.8.8-.3 1.5-.5 2.2-.8.7-.3 1.4-.5 2-.7.6-.2 1.2-.5 1.6-.7.5-.2.9-.4 1.3-.5.4-.2.7-.3 1-.4.8-.5 1.1-.6 1.1-.6zM1710.2 516.4s.8-1.1 2.2-3c.3-.5.7-1 1.1-1.6.4-.6.9-1.2 1.4-1.8.5-.6 1-1.3 1.6-2.1.6-.7 1.1-1.5 1.8-2.3 1.2-1.6 2.6-3.2 4-4.9 1.4-1.7 3-3.5 4.7-5.3.8-.9 1.7-1.8 2.5-2.7l1.3-1.3 1.3-1.3c1.8-1.7 3.7-3.5 5.6-5.1l1.5-1.2 1.5-1.2c1-.8 2-1.5 3-2.2 2-1.4 4-2.8 6-4 2-1.2 3.9-2.3 5.8-3.2.9-.5 1.9-.9 2.8-1.3.4-.2.9-.4 1.3-.6.4-.2.9-.4 1.3-.5.8-.3 1.7-.6 2.4-.9.8-.3 1.5-.5 2.2-.8.7-.2 1.4-.4 2-.6.6-.2 1.2-.3 1.7-.5 1-.3 1.8-.4 2.4-.6.6-.1.8-.2.8-.2s-.3 0-.9.1c-.3 0-.6 0-1 .1-.2 0-.4 0-.7.1-.2 0-.5.1-.7.1-.5.1-1.1.1-1.7.2-.6.1-1.3.2-2 .4s-1.5.3-2.3.5l-1.2.3c-.4.1-.9.2-1.3.4-.4.1-.9.3-1.3.4-.5.2-.9.3-1.4.5-.9.4-1.9.7-2.9 1.1-2 .8-4 1.8-6 2.9l-1.5.9c-.3.1-.5.3-.8.5-.3.2-.5.3-.8.5-1 .6-2.1 1.3-3.1 2s-2.1 1.5-3.1 2.3l-1.5 1.2-1.5 1.2c-2 1.7-3.9 3.5-5.7 5.3-.9.9-1.8 1.8-2.7 2.8-.4.5-.9.9-1.3 1.4-.4.5-.8.9-1.2 1.4-1.6 1.9-3.1 3.8-4.5 5.6-.7.9-1.4 1.8-2 2.7-.3.4-.6.9-.9 1.3-.3.4-.6.9-.9 1.3-.6.8-1.1 1.7-1.6 2.4-.5.8-1 1.5-1.4 2.2-.4.7-.8 1.4-1.2 2-.4.6-.7 1.2-1 1.7-.3.5-.6 1-.8 1.4-.2.4-.4.8-.6 1-.5.7-.7 1-.7 1zM1560.6 457.9s1.1.6 3 1.7c.5.3 1 .6 1.6.9.6.3 1.2.7 1.8 1.1.7.4 1.3.8 2.1 1.2.7.4 1.5.9 2.3 1.4 1.6 1 3.3 2.1 5.1 3.3 1.8 1.2 3.6 2.5 5.5 3.9.9.7 1.9 1.4 2.8 2.2.5.4 1 .8 1.4 1.2.5.4 1 .8 1.4 1.2 1.9 1.6 3.8 3.3 5.6 5.1l1.4 1.4c.5.5.9.9 1.3 1.4.9.9 1.8 1.9 2.6 2.8 1.7 1.9 3.3 3.9 4.8 5.8 1.5 2 2.9 3.9 4.2 5.8.7.9 1.2 1.9 1.8 2.8.3.5.6.9.8 1.4.3.5.5.9.8 1.3.5.9 1 1.7 1.4 2.6l1.2 2.4c.4.8.7 1.5 1 2.1.3.7.6 1.3.8 1.8.5 1.1.9 2 1.1 2.6.3.6.4.9.4.9s-.1-.3-.3-1c-.1-.3-.2-.7-.3-1.2-.1-.2-.1-.5-.2-.7-.1-.3-.2-.5-.3-.8-.2-.6-.4-1.2-.7-1.9-.3-.7-.6-1.4-.9-2.2-.3-.8-.7-1.6-1.1-2.5-.2-.4-.4-.9-.6-1.3-.2-.5-.4-.9-.7-1.4-.2-.5-.5-.9-.7-1.4-.2-.5-.5-1-.8-1.5-.5-1-1.1-2-1.7-3-1.2-2-2.6-4.1-4-6.2-.4-.5-.8-1-1.1-1.5-.2-.3-.4-.5-.6-.8-.2-.3-.4-.5-.6-.8-.8-1-1.6-2-2.5-3-.9-1-1.7-2-2.7-2.9-.5-.5-.9-1-1.4-1.4l-1.4-1.4c-1.9-1.8-3.8-3.5-5.8-5.1-1-.8-2-1.6-3-2.3-.5-.4-1-.7-1.5-1.1-.5-.3-1-.7-1.5-1-2-1.3-3.9-2.6-5.7-3.7-.9-.6-1.8-1.1-2.7-1.6-.4-.2-.9-.5-1.3-.7-.4-.2-.8-.4-1.3-.7l-2.4-1.2c-.8-.4-1.5-.7-2.2-1-.7-.3-1.3-.6-1.9-.8-.6-.3-1.1-.5-1.6-.7-.5-.2-.9-.4-1.3-.5-.4-.1-.7-.3-1-.4-.1-.5-.4-.6-.4-.6z"/><path class="st1" d="M1690.8 436.6s0 .2.1.4.2.6.3 1c.1.4.3.9.5 1.4.1.2.2.5.3.8.1.3.2.5.2.8.1.3.2.5.2.8.1.3.1.5.2.8.1.3.1.5.2.7 0 .2.1.5.1.7 0 .2.1.4.1.6 0 .2 0 .3.1.5V445.4c0-.1.1-.2.1-.3 0-.1.1-.3.1-.5s.1-.4.1-.6c0-.2 0-.5.1-.8v-.9c0-.3-.1-.6-.1-.9-.1-.3-.1-.6-.2-.9l-.3-.9c-.1-.3-.2-.5-.4-.8-.3-.5-.5-.9-.8-1.3-.3-.3-.5-.6-.7-.8 0 .1 0 0-.2-.1.1 0 0 0 0 0zM1618.2 439.6s.1-.1.1-.4c.1-.2.2-.5.3-.9.1-.4.2-.8.4-1.3.1-.2.1-.5.2-.7.1-.2.2-.5.2-.7.1-.2.2-.5.2-.7.1-.2.2-.4.3-.7.2-.4.4-.8.5-1.2.1-.2.2-.3.2-.5.1-.1.1-.3.2-.4.1-.1.1-.2.1-.2v-.1h-.1c-.1 0-.1.1-.2.1-.1.1-.2.1-.3.2-.1.1-.3.2-.4.3-.1.1-.3.3-.4.5-.1.2-.3.4-.4.6-.1.2-.3.4-.4.7-.1.2-.2.5-.3.8-.1.3-.2.5-.2.8-.1.3-.1.5-.2.8-.1.5-.1 1-.1 1.4 0 .4.1.8.1 1 .2.3.2.4.2.6 0-.1 0 0 0 0zM1681.8 407.5c-.7 7 1.4 13.1 4.8 13.6s6.7-4.7 7.4-11.7c.7-7-1.4-13.1-4.8-13.6-3.3-.5-6.6 4.7-7.4 11.7zM1624.6 410.6c2.1 6.6 6.3 10.7 9.5 9.3 3.2-1.5 4.1-8 2-14.6-2.1-6.6-6.3-10.7-9.5-9.3-3.2 1.5-4.1 8-2 14.6z"/><path class="st3 st7" d="M230.8 539.4c27.6.4 55.2-1.2 82.5-4.9-14.3-9.3-32.8-8.2-49.7-6.5 18.9-6.9 37-16.2 53.8-27.5 6.6-4.4 13.4-10 14.7-17.8.2-.9.2-1.9-.2-2.8-.4-.9-1.3-1.6-2.2-2.1-7.5-4.2-16.8-3.1-25.2-1.3-17.4 3.6-34.7 9.2-50.5 17.2.4-1.5.8-3.1 1.1-4.6 1.9-10.4.6-21.6-4.9-30.7-3.2-5.4-7.8-9.8-13.1-13.3 2.3-4.6 3.5-9.8 3.3-15-.1-2.6-.6-5.4-2.6-7-3.2-2.7-8.1-1.1-11.4 1.5-4.2 3.2-7.4 7.8-9 12.9-8.6-1.6-17.5-1.6-26.2-.6-5 .5-10.1 1.4-15.1 2.8-.2-4.2-1.4-8.4-3.6-11.9-2-3.2-5.1-6-8.8-6.3-3-.2-6 1.4-7.9 3.7-1.9 2.3-3 5.3-3.5 8.3-.9 5.5-.2 11.3 2 16.4-4.2 3.1-7.8 6.9-10.6 11.4-6 9.5-7.7 21.2-6.8 32.5.4 5 1.2 10 2.4 14.9C122.4 490.6 96.4 481 72 485c-4.1.7-8.5 1.9-10.7 5.4-2.3 3.7-1.4 8.6.2 12.7 7.6 20.1 27.8 34.7 49.2 35.8.3 1.1-.2 2.4-1.2 2.9-20.7.4-41.4 3.8-61.1 10.3-.2 1.7 2 2.5 3.7 2.7 32.8 3.4 64.3-13.2 97.2-15.9 4-.3 8-.4 12-.8l69.5 1.3z"/><path class="st3 st5" d="M239.6 507.4c-1.5-10-9.8-18-19.3-21.4-9.5-3.4-20-2.8-29.9-.9-8 1.6-16.1 4.1-22.3 9.5-6.7 5.9-10.5 14.8-10.7 23.7-.2 6.5 1.2 10.7 5.1 16.4 1.6 1.6 2.4 2.1 4 1.9 16.4 2 32.9 2.4 49.4 1.3 5.2.2 10.1 1.2 15.9-.4 7-5.5 4.7-9.9 6.3-15.6 1.3-4.6 2.2-9.6 1.5-14.5z"/><path class="st1" d="M158.7 468.6s1.3.3 3.6.8c.6.1 1.2.3 1.9.4.7.1 1.4.3 2.2.5.8.2 1.7.3 2.5.5.9.2 1.8.3 2.8.5 2 .3 4.1.7 6.4 1 2.3.3 4.7.6 7.1.8 1.2.1 2.5.2 3.8.3.6 0 1.3.1 1.9.1.6 0 1.3.1 1.9.1 2.6.1 5.3.1 7.9 0 .7 0 1.3-.1 2-.1s1.3-.1 2-.1l3.9-.3c2.6-.3 5.1-.6 7.6-1.1 2.4-.5 4.8-.9 7-1.5 1.1-.3 2.2-.6 3.2-.9.5-.1 1-.3 1.5-.5s1-.3 1.5-.5l2.7-.9c.8-.3 1.7-.6 2.4-.9l2.1-.9c.6-.3 1.2-.6 1.8-.8 1.1-.5 1.9-.9 2.5-1.2.6-.3.9-.4.9-.4s-.3.2-.8.5c-.3.2-.6.4-1 .6-.2.1-.4.3-.6.4-.2.1-.5.3-.7.4-.5.3-1.1.6-1.7 1-.6.3-1.3.7-2 1.1-.7.4-1.5.7-2.4 1.2-.4.2-.9.4-1.3.6-.4.2-.9.4-1.4.6-.5.2-1 .4-1.4.6l-1.5.6c-1 .4-2.1.7-3.2 1.1-2.2.7-4.6 1.3-7.1 1.9-.6.1-1.2.3-1.9.4-.3.1-.6.1-1 .2-.3.1-.6.1-1 .2l-3.9.6c-1.3.1-2.7.3-4 .4-.7 0-1.4.1-2 .1-.7 0-1.3.1-2 .1-2.7.1-5.4 0-8.1-.1l-3.9-.3c-.6-.1-1.3-.1-1.9-.2-.6-.1-1.3-.1-1.9-.2-2.5-.3-4.9-.7-7.2-1.1-1.1-.2-2.2-.5-3.3-.7-.5-.1-1.1-.2-1.6-.4-.5-.1-1-.2-1.5-.4-1-.3-1.9-.5-2.8-.7-.9-.3-1.7-.5-2.5-.7-.8-.2-1.5-.5-2.2-.7-.7-.2-1.3-.4-1.9-.6-.6-.2-1.1-.3-1.5-.5-.4-.2-.8-.3-1.1-.4-.5-.4-.8-.5-.8-.5zM139.8 539.1s-.9-1-2.4-2.8c-.4-.4-.8-.9-1.3-1.4-.5-.5-1-1.1-1.5-1.7-.6-.6-1.1-1.2-1.8-1.9-.6-.7-1.3-1.4-2-2.1-1.4-1.4-2.9-3-4.5-4.6-1.6-1.6-3.4-3.2-5.3-4.9-.9-.8-1.9-1.7-2.9-2.5l-1.5-1.2-1.5-1.2c-2.1-1.6-4.2-3.2-6.3-4.7-.5-.4-1.1-.7-1.6-1.1-.6-.4-1.1-.7-1.7-1.1l-3.3-2.1c-2.3-1.3-4.5-2.5-6.7-3.6s-4.4-2.1-6.5-2.9c-1-.4-2.1-.8-3.1-1.2-.5-.2-1-.4-1.5-.5-.5-.2-1-.3-1.4-.5-1-.3-1.9-.6-2.7-.8-.9-.2-1.7-.5-2.5-.7-.8-.2-1.5-.4-2.2-.5-.7-.2-1.3-.3-1.9-.4-1.1-.3-2-.4-2.7-.5-.6-.1-.9-.2-.9-.2h1c.3 0 .7 0 1.2.1h.7c.3 0 .5.1.8.1.6.1 1.2.1 1.9.2s1.5.2 2.3.3c.8.1 1.7.3 2.6.5.5.1.9.2 1.4.3l1.5.3c.5.1 1 .3 1.5.4.5.1 1 .3 1.6.4 1 .3 2.1.6 3.2 1 2.2.7 4.5 1.7 6.8 2.7.6.3 1.2.5 1.7.8.3.1.6.3.9.4.3.1.6.3.9.4 1.2.6 2.3 1.2 3.5 1.9 1.1.7 2.3 1.3 3.5 2.1.6.4 1.2.7 1.7 1.1.6.4 1.1.8 1.7 1.1 2.2 1.6 4.4 3.2 6.4 4.9 1 .9 2 1.7 3 2.6.5.4 1 .9 1.4 1.3.5.4.9.9 1.4 1.3 1.8 1.8 3.5 3.5 5.1 5.2.8.8 1.5 1.7 2.3 2.5.4.4.7.8 1 1.2.3.4.7.8 1 1.2.6.8 1.3 1.5 1.8 2.3.6.7 1.1 1.4 1.6 2.1.5.7 1 1.3 1.4 1.8.4.6.8 1.1 1.1 1.6.3.5.6.9.9 1.3.3.4.5.7.6 1 .1.4.3.7.3.7zM307.3 483.9s-1.2.6-3.3 1.6c-.5.3-1.1.5-1.8.8-.6.3-1.3.6-2.1 1-.7.4-1.5.8-2.3 1.2-.8.4-1.7.9-2.6 1.3-1.8.9-3.7 1.9-5.7 3.1-2 1.1-4.1 2.4-6.2 3.7-1 .7-2.1 1.3-3.2 2.1-.5.4-1.1.7-1.6 1.1-.5.4-1.1.7-1.6 1.1-2.1 1.5-4.2 3.1-6.3 4.8-.5.4-1 .8-1.5 1.3-.5.4-1 .9-1.5 1.3-1 .8-2 1.7-2.9 2.6-1.9 1.8-3.7 3.6-5.4 5.4-1.7 1.8-3.3 3.6-4.7 5.4-.7.9-1.4 1.8-2 2.6-.3.4-.6.9-.9 1.3l-.9 1.2c-.6.8-1.1 1.6-1.6 2.4-.5.8-.9 1.5-1.4 2.2-.4.7-.8 1.4-1.1 2-.4.6-.6 1.2-.9 1.7-.6 1-1 1.9-1.3 2.4-.3.6-.4.9-.4.9l.3-.9c.1-.3.2-.7.4-1.1.1-.2.2-.5.3-.7.1-.2.2-.5.3-.8.2-.5.5-1.2.7-1.8.3-.6.6-1.3 1-2.1.4-.7.8-1.5 1.2-2.3.2-.4.5-.8.7-1.2.2-.4.5-.9.7-1.3.3-.4.5-.9.8-1.3.3-.4.5-.9.9-1.4.6-.9 1.2-1.9 1.9-2.8 1.3-1.9 2.9-3.8 4.5-5.8.4-.5.8-1 1.3-1.4.2-.2.4-.5.7-.7.2-.2.4-.5.7-.7.9-1 1.8-1.9 2.8-2.8 1-.9 1.9-1.8 3-2.7.5-.4 1-.9 1.5-1.3s1-.9 1.6-1.3c2.1-1.7 4.3-3.3 6.5-4.8 1.1-.7 2.2-1.5 3.3-2.2.6-.3 1.1-.7 1.7-1 .6-.3 1.1-.7 1.6-1 2.2-1.3 4.3-2.4 6.4-3.4 1-.5 2.1-1 3-1.5.5-.2 1-.4 1.5-.7.5-.2 1-.4 1.4-.6.9-.4 1.8-.8 2.7-1.1.9-.3 1.7-.7 2.4-.9.8-.3 1.5-.6 2.1-.8.7-.2 1.3-.4 1.8-.6.6-.2 1.1-.4 1.5-.5.4-.1.8-.3 1.1-.4.5-.5.9-.6.9-.6z"/><path class="st1" d="M161.1 464.8s0 .1-.1.4c-.1.2-.2.6-.4.9-.2.4-.3.8-.5 1.3-.1.2-.2.5-.3.7-.1.2-.2.5-.3.7-.1.3-.2.5-.2.7-.1.2-.1.5-.2.7-.1.2-.1.5-.2.7-.1.2-.1.4-.1.6 0 .2-.1.4-.1.5 0 .2-.1.3-.1.4V472.7c0-.1-.1-.2-.1-.3 0-.1-.1-.3-.1-.4 0-.2-.1-.4-.1-.6 0-.2-.1-.5-.1-.7v-.8c0-.3.1-.6.1-.8.1-.3.2-.6.2-.8.1-.3.2-.5.3-.8.1-.3.3-.5.4-.7.3-.5.6-.9.9-1.2.3-.3.6-.6.8-.7 0 .1.1 0 .2-.1 0 .1 0 0 0 0zM242.5 467.2s-.1-.1-.2-.3c-.1-.2-.2-.5-.3-.9-.1-.3-.3-.7-.4-1.2-.1-.2-.2-.4-.2-.6-.1-.2-.2-.4-.3-.7l-.3-.6-.3-.6c-.2-.4-.4-.8-.6-1.1-.1-.2-.2-.3-.3-.4-.1-.1-.2-.2-.2-.3-.1-.1-.1-.2-.1-.2v-.1h.1c.1 0 .1 0 .3.1.1 0 .2.1.4.2.1.1.3.2.4.3.2.1.3.3.5.4l.5.5c.2.2.3.4.4.6.1.2.3.5.4.7.1.2.2.5.3.7.1.2.1.5.2.7.1.5.1.9.1 1.3s-.1.7-.1.9l-.3.6z"/><ellipse transform="rotate(-7.607 164.193 438.536)" class="st1" cx="164.2" cy="438.6" rx="6.9" ry="11.9"/><ellipse transform="rotate(-69.347 228.862 437.899)" class="st1" cx="228.8" cy="437.9" rx="11.9" ry="6.9"/><path class="st8" d="M.5 375.5h1919v734.7H.5z"/><path class="st9" d="M1943.3 37.7c-24.8-6.8-51.1-9-77-5.7-35.5 4.6-67.4 20.2-91.3 44.5-25.6 26-41.3 58.7-52.5 91.7-8.9-6.6-18.6-13.3-30.3-14.3-9.2-.8-18.6 2-24.1 8.9-35.4-17.9-80.5-32.2-118.2-11.1-6 3.4-12.7 7.7-16.2 13.5-2.6 4.3-3.8 9.3-4.4 14.2-1.9 13.6-.2 27.9 2.7 41.3.1.6.3.9.4 1.9H398.8c-.4-23-9.8-44.8-25.1-61.4-26.3-28.8-67.7-35-103.6-22.7-13 4.4-25.3 11.1-36 19.6.2-10.3-3.6-21.5-7.7-30.2-11.6-24.7-35-41.8-62.1-45-10-1.2-20-.5-29.7 2 11.5-11.8 14.2-31.4 6.6-46.6C127.9 11.9 96.6 4.2 69.6 7.9 33 12.8-.4 32.5-24.2 60.3c.9 47.5-2 94.5-7.2 141.3 11.7 7.5 11.4 25.8 11.8 39.4.4 15.1 2 32.3 17.6 39.4.5.2 1 .4 1.5.7v101.5h1920V280.9c5.5-.5 11-1 16.5-1.6 4.4-80.7 6.2-160.9 7.3-241.6z"/><path class="st2" d="M2060.6 108.8c-24.6-29.9-59.3-51.1-97.1-56.4-28-3.9-60.4 4.3-74.1 32.5-7.9 16.3-5.1 37.4 6.8 50-10-2.7-20.4-3.4-30.8-2.1-28.1 3.5-52.3 21.9-64.3 48.4-4.3 9.4-8.2 21.4-8 32.5-11.2-9.2-23.8-16.3-37.3-21.1-37.3-13.2-80.1-6.6-107.4 24.3-13.9 15.8-23.1 36.2-25.4 57.3-13.5-4.2-27.7-8-42.3-11.1-39.8-8.5-86.7-11-108.5 2.2-12.6 7.6-10.1 20.4 5.8 30.3-14.1-3.7-28.9-6.5-43.8-8-40.4-4.2-76.5 1-95.7 13.5-6.9 4.5-13.4 10.5-13.9 16.9-15.2-7.7-32.8-14.7-51.7-20.4-52.3-15.9-114-21-155.4-9.3-28.8 8.1-45.8 22.3-42.1 41.3H945.1c-18.2-12-41.2-22.1-71.8-30.3-43.5-11.7-101.2-17.7-164.9-16.7-36.5.6-73.3 3.1-108.8 7.3-12.8-10.4-27.4-19.7-43.2-27.2-25.8-12.1-58.1-18.3-76.5-5.6-8.6 5.9-11.2 16.1-7.3 26.1-1.8.7-3.7 1.5-5.5 2.3-6.2-2.9-12.7-5.3-19.3-7.1-27.3-7.5-53.8-4.6-70.4 7.6-5.9 4.3-11.9 10.4-13.9 17.3-7.3-7.9-15.9-15.4-25.5-22.1-.2-1.2-.5-2.4-.9-3.6-2.1-6.5-7.3-12.1-12.1-16.7-30.2-28.5-73.8-22.9-109.2-11.8-3.6-8-11.7-12.7-20.1-13.6-10.8-1.2-20.9 3.6-30.2 8.5-4-35.4-12.2-71.3-30.5-102.4-17.1-29.1-43.2-51-74.5-62.5-22.8-8.4-47-11.3-70.8-9.3-14.3 81.4-27.6 162.5-38.7 244.5 8.6 2.9 17.2 5.7 25.9 8.4 7.9 2.5 15.7 4.8 23.6 7.1v52.8h1920v-19.7c13.4-1.3 26.8-2.2 40.1-3.4 13-1.2 26-2.6 38.9-4.7 12.5-2.1 26.5-4 38.1-9.5 16.1-7.6 17.8-26.1 18.2-42.3.4-14.6.1-34.2 12.2-42.3-5.3-50.4-8.4-100.8-7.4-151.9z"/><path class="st8" d="M-.5 4h1921v375.5H-.5z"/></svg>